<svg width="32" height="32" viewBox="0 0 32 32" fill="none" xmlns="http://www.w3.org/2000/svg">
<g filter="url(#filter0_d_402_11)">
<rect x="6" y="6" width="20" height="20" rx="10" fill="#07EF9C"/>
<g clip-path="url(#clip0_402_11)">
<path d="M21.394 21.2852L20.7964 21.8828C20.7183 21.9609 20.6226 22 20.5093 22C20.396 22 20.2964 21.9609 20.2104 21.8828L16.3667 18.0273L15.4644 18.9414C15.4175 18.9805 15.3628 19 15.3003 19C15.2378 19 15.187 18.9805 15.1479 18.9414L14.8198 18.625C14.7808 18.5781 14.7612 18.5234 14.7612 18.4609C14.7612 18.3984 14.7808 18.3438 14.8198 18.2969L15.1597 17.957L12.5112 15.625C11.9253 15.0391 11.2964 14.1426 10.6245 12.9355C9.95264 11.7285 9.58154 10.75 9.51123 10C9.59717 10.1016 9.70264 10.2148 9.82764 10.3398C9.95264 10.4648 10.0991 10.6074 10.2671 10.7676C10.4351 10.9277 10.5581 11.0469 10.6362 11.125C11.2065 11.6953 11.8081 12.1777 12.4409 12.5723C13.0737 12.9668 13.4604 13.0938 13.6011 12.9531L13.6069 12.9473L13.6128 12.9297L16.9058 16.2227L17.0581 16.0586C17.105 16.0195 17.1597 16 17.2222 16C17.2847 16 17.3394 16.0195 17.3862 16.0586L17.7026 16.3867C17.7495 16.4258 17.7729 16.4766 17.7729 16.5391C17.7729 16.6016 17.7495 16.6562 17.7026 16.7031L17.5503 16.8555L21.394 20.6992C21.4722 20.7852 21.5112 20.8848 21.5112 20.998C21.5112 21.1113 21.4722 21.207 21.394 21.2852V21.2852Z" fill="black" fill-opacity="0.5"/>
</g>
</g>
<defs>
<filter id="filter0_d_402_11" x="0" y="0" width="32" height="32" filterUnits="userSpaceOnUse" color-interpolation-filters="sRGB">
<feFlood flood-opacity="0" result="BackgroundImageFix"/>
<feColorMatrix in="SourceAlpha" type="matrix" values="0 0 0 0 0 0 0 0 0 0 0 0 0 0 0 0 0 0 127 0" result="hardAlpha"/>
<feOffset/>
<feGaussianBlur stdDeviation="3"/>
<feComposite in2="hardAlpha" operator="out"/>
<feColorMatrix type="matrix" values="0 0 0 0 0.027451 0 0 0 0 0.937255 0 0 0 0 0.607843 0 0 0 1 0"/>
<feBlend mode="normal" in2="BackgroundImageFix" result="effect1_dropShadow_402_11"/>
<feBlend mode="normal" in="SourceGraphic" in2="effect1_dropShadow_402_11" result="shape"/>
</filter>
<clipPath id="clip0_402_11">
<rect width="12.0117" height="12" fill="white" transform="translate(9.5 10)"/>
</clipPath>
</defs>
</svg>
