<svg width="136" height="137" viewBox="0 0 136 137" fill="none" xmlns="http://www.w3.org/2000/svg">
  <path opacity="0.05"
        d="M46.1783 28.2562C47.3921 27.2769 48.5964 26.2489 49.8044 25.2067C50.9921 24.1121 52.2271 23.0816 53.524 22.1488C54.8624 21.2792 56.2992 20.5678 57.8401 20.0295C59.4582 19.6169 61.1924 19.3876 63.0348 19.333C64.9511 19.3897 66.9603 19.5859 69.042 19.8979C71.161 20.2573 73.323 20.6828 75.4988 21.1478C77.6605 21.5948 79.8008 22.0487 81.8917 22.5C83.9168 22.8963 85.857 23.2861 87.6894 23.677C89.4072 24.0189 90.9876 24.3851 92.4134 24.7949C93.6929 25.1889 94.801 25.6576 95.7232 26.2223C96.7945 27.1549 97.8979 29.6904 98.0242 31.3008C98.0331 32.4264 97.9881 33.6565 97.9252 34.97C97.934 36.2485 98.0023 37.5761 98.1703 38.9297C98.5121 40.1987 99.0131 41.4627 99.6914 42.7078C100.596 43.8444 101.69 44.9544 102.96 46.0439C104.42 47.041 105.964 48.024 107.544 49.0158C109.189 49.9812 110.778 51.0061 112.268 52.1113C113.691 53.2631 114.943 54.5395 115.995 55.954C116.901 57.4613 117.581 59.1249 118.034 60.9399C118.32 62.8546 118.394 64.9079 118.271 67.0764C118.012 69.3049 117.588 71.6062 117.024 73.9353C116.367 76.2528 115.598 78.5342 114.731 80.7339C113.803 82.828 112.792 84.7692 111.698 86.5161C110.562 88.0868 109.348 89.4196 108.058 90.4968C106.739 91.3851 105.353 92.0342 103.909 92.4649C102.479 92.7928 101.021 92.9906 99.5592 93.119C98.1796 93.3175 96.8422 93.5807 95.5749 93.9767C94.4594 94.6221 93.4465 95.507 92.5474 96.6615C91.8173 98.1298 91.1817 99.8576 90.6176 101.801C90.1446 103.924 89.6645 106.113 89.1256 108.26C88.5306 110.297 87.7744 112.087 86.8068 113.528C85.6599 114.6 84.2856 115.2 82.6952 115.341C80.9368 115.127 79.0184 114.56 76.9912 113.726C74.913 112.769 72.8228 111.733 70.776 110.713C68.81 109.829 66.9596 109.099 65.2565 108.561C63.7001 108.295 62.3051 108.244 61.0667 108.382C59.9631 108.761 58.9813 109.254 58.0995 109.806C56.9044 110.777 54.655 112.263 53.4837 112.56C52.6356 112.592 51.7389 112.411 50.7943 112.023C49.7715 111.525 48.6977 110.839 47.5841 109.99C46.3913 109.064 45.1654 108.011 43.9197 106.863C42.6073 105.677 41.287 104.427 39.9734 103.136C38.6086 101.839 37.2653 100.52 35.9529 99.1915C34.614 97.8706 33.3193 96.5459 32.0876 95.2225C30.8493 93.904 29.6846 92.5834 28.6114 91.2609C27.5525 89.9313 26.5958 88.5928 25.7543 87.2425C24.9479 85.8733 24.2821 84.5191 23.7568 83.1762C23.2711 81.8088 22.9231 80.4505 22.7064 79.1028C22.5228 77.7284 22.4599 76.3608 22.5076 75.0014C22.5705 73.6151 22.7277 72.2326 22.9649 70.8536C23.1923 69.4439 23.4805 68.0277 23.8188 66.6048C24.1182 65.1422 24.4478 63.6614 24.7976 62.1565C25.0892 60.6053 25.3877 59.0206 25.6901 57.4002C25.925 55.7363 26.1653 54.0361 26.4102 52.3087C26.601 50.558 26.8098 48.7967 27.0506 47.0429C27.2662 45.3102 27.5365 43.6203 27.8774 41.9988C28.2319 40.4561 28.6824 39.0229 29.2451 37.7215C29.8517 36.5426 30.5853 35.515 31.4487 34.6515C32.3623 33.9056 33.4003 33.3016 34.5534 32.8245C35.7282 32.399 36.9908 32.0408 38.3224 31.7183C39.6245 31.339 40.962 30.923 42.3194 30.4421C43.6033 29.8177 44.8903 29.0905 46.1769 28.2569"
        stroke="url(#paint0_linear_102_3)" stroke-width="2" stroke-linecap="round" stroke-dasharray="1 10" />
  <path opacity="0.09"
        d="M50.2402 28.2817C51.4839 27.4118 52.725 26.493 53.9747 25.5569C55.2064 24.5678 56.4796 23.6343 57.8063 22.7912C59.1632 22.0013 60.6032 21.3621 62.1293 20.8897C63.7154 20.536 65.3984 20.367 67.169 20.3728C68.9996 20.4973 70.9068 20.7734 72.8725 21.1775C74.8671 21.6491 76.8943 22.2058 78.9294 22.8246C80.9476 23.4486 82.94 24.0984 84.8777 24.7618C86.7514 25.3906 88.5377 26.0202 90.212 26.6537C91.7787 27.2428 93.2073 27.8479 94.4759 28.4831C95.6121 29.0891 96.5745 29.7462 97.3552 30.4697C98.0024 31.1867 98.4764 31.9908 98.784 32.8861C98.9923 33.787 99.071 34.7849 99.0402 35.8786C98.9872 36.9641 98.8881 38.1318 98.7768 39.3717C98.741 40.5724 98.7652 41.8196 98.8826 43.1015C99.1685 44.3103 99.6016 45.5338 100.198 46.7604C101.007 47.8995 101.99 49.0406 103.134 50.1874C104.458 51.2634 105.86 52.3428 107.296 53.4407C108.798 54.5175 110.252 55.6512 111.615 56.8579C112.922 58.0939 114.073 59.4361 115.039 60.8873C115.87 62.403 116.483 64.0429 116.879 65.7964C117.112 67.6171 117.128 69.5372 116.943 71.5334C116.616 73.5611 116.11 75.6246 115.447 77.6842C114.68 79.7137 113.783 81.6834 112.773 83.5509C111.695 85.3147 110.524 86.9198 109.27 88.3363C107.977 89.5948 106.615 90.6365 105.192 91.4511C103.758 92.1173 102.28 92.5857 100.771 92.879C99.2933 93.1168 97.8137 93.2692 96.3509 93.3907C94.9729 93.6157 93.6473 93.928 92.3916 94.3879C91.2661 95.0982 90.2305 96.0358 89.2873 97.2237C88.4765 98.6973 87.7378 100.397 87.0526 102.276C86.4322 104.303 85.7995 106.368 85.115 108.373C84.3848 110.26 83.5241 111.9 82.4996 113.198C81.3338 114.15 79.9969 114.648 78.4969 114.707C76.8643 114.428 75.11 113.801 73.2723 112.903C71.3852 111.87 69.4884 110.736 67.6256 109.588C65.8139 108.545 64.0914 107.621 62.4868 106.861C60.9923 106.344 59.6306 106.029 58.4052 105.898C57.2888 106.007 56.2848 106.25 55.3821 106.578C54.1526 107.274 51.9366 108.491 50.8486 108.79C49.6853 108.822 47.1137 107.829 45.6929 106.833C44.6635 106.039 43.6041 105.111 42.5221 104.072C41.3777 102.989 40.2207 101.823 39.064 100.599C37.8558 99.3573 36.6613 98.0775 35.4926 96.7718C34.2939 95.4644 33.1344 94.143 32.03 92.8131C30.919 91.4841 29.8774 90.1479 28.9186 88.8075C27.9781 87.4614 27.1336 86.1059 26.3995 84.7421C25.7024 83.3634 25.1399 82.0026 24.7095 80.6575C24.3223 79.2916 24.0653 77.9368 23.932 76.5941C23.8351 75.2265 23.853 73.8659 23.9729 72.5107C24.1123 71.127 24.3391 69.7424 24.6428 68.3561C24.9393 66.9349 25.2953 65.5034 25.697 64.057C26.0683 62.5694 26.4715 61.0586 26.8934 59.5214C27.2686 57.941 27.655 56.3285 28.0496 54.6852C28.391 53.0082 28.7421 51.3084 29.1045 49.5937C29.4238 47.8705 29.7675 46.1565 30.1448 44.4702C30.5026 42.8211 30.9148 41.2343 31.3923 39.7367C31.8812 38.3274 32.4562 37.0418 33.128 35.8979C33.8315 34.8756 34.6443 34.009 35.5651 33.3036C36.5204 32.7049 37.5807 32.2429 38.7375 31.9005C39.9026 31.596 41.1453 31.3515 42.4495 31.1355C43.725 30.8571 45.036 30.5386 46.3723 30.1547C47.649 29.6313 48.9381 29.0065 50.2387 28.2823"
        stroke="url(#paint1_linear_102_3)" stroke-width="2" stroke-linecap="round" stroke-dasharray="1 9" />
  <path opacity="0.13"
        d="M54.274 28.653C55.5373 27.8938 56.805 27.086 58.0841 26.2612C59.3479 25.3793 60.6482 24.5476 61.9922 23.7991C63.3575 23.0958 64.7882 22.5325 66.2871 22.1283C67.829 21.8361 69.4455 21.7229 71.1312 21.787C72.8587 21.9702 74.6458 22.312 76.4727 22.792C78.321 23.354 80.1875 24.0192 82.0489 24.7616C83.8948 25.5292 85.7066 26.3413 87.4574 27.1833C89.1494 28.004 90.7513 28.837 92.2401 29.678C93.6328 30.4814 94.8875 31.2941 95.985 32.1241C96.9656 32.9197 97.7798 33.7457 98.4214 34.614C98.9466 35.4595 99.3097 36.3592 99.5187 37.3221C99.648 38.2721 99.6596 39.2888 99.5726 40.3743C99.4772 41.439 99.3438 42.568 99.2014 43.752C99.1395 44.8998 99.1323 46.092 99.2132 47.3179C99.4537 48.4871 99.8268 49.6823 100.349 50.8965C101.067 52.0437 101.94 53.2116 102.959 54.406C104.143 55.5453 105.396 56.7009 106.682 57.8795C108.031 59.0425 109.337 60.2567 110.559 61.5297C111.739 62.8215 112.771 64.1963 113.632 65.6514C114.373 67.1473 114.907 68.7317 115.231 70.3911C115.402 72.0894 115.361 73.8465 115.118 75.6421C114.733 77.443 114.166 79.2443 113.433 81.0138C112.592 82.7359 111.613 84.38 110.512 85.9073C109.343 87.3346 108.076 88.6069 106.73 89.6967C105.347 90.6574 103.903 91.4247 102.413 91.9971C100.922 92.466 99.4041 92.7755 97.8759 92.9542C96.3836 93.1246 94.9043 93.2472 93.4553 93.375C92.0834 93.6324 90.7641 93.9952 89.5111 94.5112C88.365 95.2746 87.2916 96.2527 86.2941 97.4547C85.3952 98.9152 84.5501 100.568 83.7436 102.366C82.9825 104.284 82.2086 106.214 81.3941 108.065C80.5432 109.799 79.5941 111.286 78.5217 112.443C77.3436 113.279 76.0446 113.684 74.6347 113.673C73.1212 113.342 71.5218 112.673 69.8667 111.733C68.1675 110.651 66.4643 109.448 64.7873 108.206C63.1409 107.038 61.5659 105.956 60.0816 105.01C58.6762 104.276 57.3778 103.723 56.1929 103.344C54.5903 103.194 51.93 103.692 50.7966 104.11C49.7169 104.555 47.59 104.88 46.4851 104.645C45.6917 104.366 44.8761 103.925 44.038 103.332C43.137 102.668 42.2145 101.871 41.2723 100.955C40.272 99.9898 39.2604 98.9323 38.2479 97.7996C37.1872 96.6422 36.1356 95.4298 35.105 94.1788C34.0457 92.9168 33.0226 91.6264 32.0475 90.3188C31.066 89.0066 30.1487 87.6803 29.3088 86.344C28.4866 85.0004 27.7564 83.6455 27.1303 82.2804C26.5418 80.9015 26.0798 79.5404 25.7409 78.1966C25.4466 76.835 25.2765 75.4835 25.2208 74.1438C25.2043 72.7796 25.2938 71.4214 25.4827 70.0647C25.6931 68.6808 25.9874 67.2917 26.3529 65.8946C26.7198 64.4652 27.1434 63.0191 27.611 61.5538C28.0604 60.0524 28.5397 58.5245 29.043 56.9721C29.5108 55.3825 29.995 53.7658 30.491 52.1285C30.9477 50.4686 31.4178 48.7978 31.9055 47.1296C32.3597 45.4671 32.8396 43.8317 33.3548 42.2436C33.8544 40.7058 34.4033 39.2477 35.0109 37.8932C35.6242 36.6342 36.3116 35.5056 37.0809 34.5268C37.8679 33.6647 38.7464 32.956 39.7139 32.4031C40.7007 31.9464 41.7723 31.6167 42.9246 31.3967C44.0783 31.2016 45.2961 31.0595 46.5693 30.9381C47.8159 30.7499 49.0996 30.521 50.4117 30.2293C51.6771 29.7983 52.964 29.273 54.2725 28.6535"
        stroke="url(#paint2_linear_102_3)" stroke-width="2" stroke-linecap="round" stroke-dasharray="1 6" />
  <path opacity="0.16"
        d="M58.2106 29.3858C59.4854 28.7336 60.7678 28.0384 62.0621 27.3254C63.3454 26.5543 64.6581 25.8286 66.0042 25.1785C67.3657 24.5641 68.7745 24.0811 70.2313 23.7458C71.7172 23.5151 73.2569 23.4554 74.8411 23.5689C76.4559 23.7999 78.1059 24.1933 79.7788 24.7323C81.4634 25.3589 83.1504 26.1017 84.8205 26.9359C86.4692 27.8099 88.0771 28.745 89.6194 29.7209C91.1079 30.6921 92.5045 31.6843 93.7876 32.6898C94.9876 33.6648 96.0531 34.6483 96.9722 35.6385C97.7887 36.5931 98.4515 37.5643 98.953 38.5557C99.361 39.5142 99.6189 40.5048 99.7397 41.5327C99.7993 42.5329 99.7546 43.5769 99.6262 44.668C99.5005 45.7304 99.3433 46.8385 99.1818 47.9887C99.1024 49.1055 99.0753 50.2604 99.1259 51.4503C99.3268 52.5965 99.6455 53.7729 100.095 54.9794C100.725 56.138 101.491 57.3287 102.383 58.5558C103.427 59.7438 104.53 60.9533 105.659 62.1876C106.852 63.4062 108.002 64.67 109.074 65.9759C110.115 67.2913 111.02 68.6648 111.766 70.0894C112.406 71.5366 112.855 73.0344 113.103 74.5719C113.215 76.1234 113.122 77.6975 112.832 79.2727C112.408 80.8316 111.804 82.3625 111.035 83.8341C110.159 85.2496 109.143 86.5699 108.007 87.7686C106.801 88.8742 105.503 89.8316 104.126 90.6226C102.717 91.3112 101.254 91.834 99.7545 92.1978C98.256 92.4974 96.7434 92.6803 95.23 92.773C93.7513 92.8933 92.2916 93.004 90.8663 93.1473C89.5057 93.4391 88.1924 93.8491 86.9371 94.4143C85.7614 95.2147 84.6444 96.2129 83.5853 97.4122C82.5973 98.839 81.6483 100.424 80.7277 102.124C79.8355 103.918 78.9356 105.702 78.0084 107.395C77.0517 108.969 76.0275 110.302 74.9178 111.323C73.7338 112.044 72.4754 112.363 71.1486 112.293C69.7476 111.922 68.2959 111.226 66.8101 110.266C65.2926 109.157 63.7746 107.913 62.2847 106.61C60.8075 105.352 59.389 104.151 58.0422 103.055C56.7445 102.137 55.5335 101.376 54.4151 100.778C52.863 100.275 50.2239 100.119 49.0875 100.286C48.0073 100.555 45.9428 100.767 44.9088 100.584C44.1774 100.373 43.4359 100.022 42.6847 99.5311C41.8798 98.9832 41.0609 98.3055 40.2312 97.5105C39.3485 96.6676 38.4606 95.724 37.5718 94.6968C36.6409 93.6388 35.7183 92.5147 34.8172 91.3375C33.8894 90.1456 32.9942 88.9127 32.144 87.6489C31.2903 86.3777 30.496 85.0804 29.7734 83.767C29.0686 82.446 28.4514 81.1065 27.9307 79.7515C27.4491 78.3884 27.0853 77.0357 26.8372 75.6988C26.6329 74.3462 26.544 73.0012 26.5643 71.6654C26.6253 70.3081 26.7855 68.9526 27.0409 67.5965C27.3197 66.215 27.6802 64.8248 28.1104 63.4239C28.5477 61.9917 29.0404 60.5441 29.5805 59.075C30.1082 57.576 30.6709 56.0519 31.2615 54.5078C31.8269 52.9353 32.413 51.3463 33.0181 49.7476C33.5922 48.1368 34.1837 46.5299 34.7965 44.9424C35.3829 43.3747 35.9979 41.8492 36.6436 40.3885C37.2749 38.989 37.95 37.6805 38.6752 36.4881C39.3994 35.3912 40.1851 34.4305 41.0355 33.6184C41.8934 32.9162 42.8229 32.3641 43.8229 31.9574C44.8319 31.6341 45.9073 31.4259 47.0497 31.3163C48.1859 31.2215 49.3755 31.1693 50.6154 31.1344C51.8322 31.0261 53.0855 30.8793 54.3719 30.6732C55.6231 30.3312 56.902 29.9017 58.209 29.3862"
        stroke="url(#paint3_linear_102_3)" stroke-width="2" stroke-linecap="round" stroke-dasharray="4 11" />
  <path opacity="0.2"
        d="M61.9753 30.4757C63.2505 29.932 64.5349 29.3478 65.8326 28.7467C67.1202 28.0874 68.4311 27.4694 69.7648 26.9172C71.1069 26.3943 72.4796 25.9925 73.8824 25.7265C75.3029 25.553 76.7552 25.5442 78.2293 25.6986C79.7199 25.9668 81.2252 26.3945 82.7333 26.9693C84.2428 27.6361 85.7395 28.4251 87.2053 29.3168C88.6489 30.2576 90.0402 31.2708 91.3612 32.3366C92.6318 33.4112 93.8118 34.5144 94.8817 35.6368C95.8782 36.7379 96.7495 37.8461 97.4838 38.9586C98.1344 40.037 98.6429 41.1189 99.0085 42.2079C99.2985 43.2629 99.4575 44.3293 99.4948 45.4136C99.4923 46.4643 99.3986 47.5405 99.2331 48.6422C99.0837 49.7151 98.9085 50.8168 98.7325 51.951C98.6402 53.0545 98.5942 54.1906 98.6181 55.3566C98.781 56.492 99.0484 57.6596 99.4254 58.8616C99.9684 60.03 100.628 61.2364 101.394 62.4829C102.298 63.7038 103.25 64.9453 104.223 66.2046C105.256 67.4548 106.248 68.7349 107.17 70.0402C108.066 71.3498 108.84 72.6889 109.471 74.0544C110.009 75.4229 110.374 76.8119 110.552 78.2071C110.61 79.5958 110.476 80.974 110.157 82.321C109.715 83.6392 109.101 84.9013 108.329 86.0839C107.457 87.2091 106.451 88.2296 105.328 89.1247C104.139 89.9403 102.859 90.6177 101.507 91.1472C100.124 91.6042 98.6933 91.9237 97.2312 92.1189C95.7692 92.2866 94.2964 92.3735 92.8259 92.4082C91.385 92.5009 89.962 92.6132 88.5664 92.7807C87.2207 93.1049 85.9144 93.5535 84.6524 94.1549C83.4465 94.9767 82.2827 95.9759 81.1636 97.1489C80.089 98.5217 79.0445 100.022 78.0198 101.608C77.0152 103.264 76.0044 104.893 74.9796 106.423C73.9356 107.832 72.852 109.014 71.7159 109.901C70.5332 110.511 69.3153 110.75 68.0654 110.627C66.7693 110.227 65.4519 109.519 64.1258 108.555C62.7738 107.441 61.4342 106.184 60.1232 104.849C58.8158 103.534 57.5553 102.247 56.3535 101.037C55.179 99.9752 54.0724 99.0424 53.0378 98.2543C51.5705 97.4293 49.0062 96.6424 47.8784 96.5414C46.799 96.5973 44.7643 96.5937 43.7686 96.4033C42.7292 96.0731 40.579 94.7588 39.4623 93.7775C38.6725 93.0458 37.8828 92.2119 37.097 91.2882C36.2753 90.3352 35.4664 89.3069 34.6787 88.2134C33.8704 87.104 33.0933 85.9406 32.3594 84.7372C31.6239 83.5244 30.947 82.2756 30.3366 80.9989C29.7464 79.7172 29.2377 78.41 28.822 77.0785C28.4424 75.7408 28.174 74.4081 28.0128 73.086C27.8963 71.7513 27.8894 70.4218 27.9833 69.0944C28.1186 67.7532 28.3505 66.4083 28.6708 65.0594C29.0183 63.6896 29.445 62.3092 29.9412 60.9185C30.4491 59.5014 31.014 58.0679 31.628 56.6178C32.236 55.1428 32.8849 53.651 33.5636 52.1443C34.2267 50.6225 34.916 49.0929 35.6266 47.5645C36.3135 46.0401 37.0245 44.5327 37.7559 43.059C38.4653 41.6167 39.2009 40.233 39.9644 38.9255C40.7134 37.6838 41.4982 36.5461 42.3232 35.5278C43.1402 34.6033 44.0053 33.8162 44.9197 33.173C45.8318 32.6291 46.7992 32.2263 47.8208 31.9583C48.8397 31.7589 49.9123 31.6636 51.0356 31.6552C52.1511 31.6481 53.312 31.6785 54.5167 31.7191C55.7005 31.6856 56.9229 31.613 58.1796 31.4858C59.4105 31.2285 60.6761 30.8907 61.9737 30.476"
        stroke="url(#paint4_linear_102_3)" stroke-width="2" stroke-linecap="round" stroke-dasharray="2 9" />
  <path opacity="0.24"
        d="M65.4921 31.9083C66.7574 31.47 68.0318 30.9955 69.3159 30.5055C70.594 29.9567 71.8887 29.4448 73.1943 28.9928C74.5034 28.5597 75.8284 28.2357 77.1662 28.0372C78.5104 27.9183 79.8652 27.9508 81.2246 28.1386C82.5849 28.4306 83.9414 28.8754 85.2822 29.4648C86.6146 30.1464 87.9181 30.953 89.1776 31.8652C90.4111 32.8362 91.5849 33.8839 92.6848 34.9937C93.737 36.1243 94.6981 37.2899 95.554 38.479C96.3462 39.657 97.0239 40.845 97.5765 42.0344C98.0621 43.1969 98.4207 44.3563 98.6538 45.514C98.8291 46.639 98.8935 47.7625 98.8523 48.8903C98.7886 49.985 98.6487 51.0891 98.4491 52.2057C98.277 53.2921 98.0844 54.3984 97.8955 55.5251C97.7874 56.6259 97.7237 57.7528 97.7174 58.9075C97.8435 60.0391 98.0564 61.2021 98.3622 62.3957C98.8188 63.5724 99.3707 64.786 100.013 66.0354C100.779 67.2722 101.583 68.5227 102.401 69.7831C103.278 71.0359 104.115 72.304 104.888 73.5802C105.645 74.8548 106.292 76.1358 106.811 77.4138C107.253 78.6867 107.538 79.9498 107.658 81.188C107.673 82.408 107.512 83.5897 107.183 84.7145C106.746 85.8022 106.149 86.8147 105.406 87.736C104.573 88.5992 103.612 89.3532 102.544 89.9867C101.413 90.5541 100.197 90.9987 98.9131 91.3169C97.5988 91.5885 96.2383 91.7523 94.8474 91.823C93.4537 91.8972 92.0468 91.9213 90.6412 91.926C89.2518 92.011 87.8759 92.1347 86.5186 92.3303C85.1937 92.6864 83.8956 93.165 82.6266 93.7882C81.3925 94.6118 80.1872 95.593 79.0114 96.7221C77.8639 98.02 76.7348 99.4188 75.6227 100.875C74.5207 102.384 73.4209 103.85 72.3183 105.211C71.2058 106.457 70.0759 107.485 68.9263 108.241C67.7497 108.745 66.5722 108.91 65.3978 108.742C64.1961 108.32 63.0004 107.61 61.817 106.658C60.6185 105.557 59.4434 104.307 58.301 102.969C57.1566 101.626 56.0529 100.288 54.9976 99.0008C53.9524 97.8293 52.9611 96.7614 52.0257 95.8163C51.1024 95.0385 50.2336 94.3868 49.4186 93.8533C48.2306 93.3303 46.0649 92.7734 45.0617 92.5992C44.0544 92.464 42.0784 91.8782 41.0911 91.3557C40.3984 90.9509 39.7092 90.4399 39.0274 89.827C38.3071 89.1826 37.5945 88.4412 36.8937 87.6103C36.1615 86.7537 35.4466 85.8151 34.7584 84.808C34.0508 83.7836 33.3805 82.6992 32.7531 81.5639C32.1248 80.4191 31.5546 79.2298 31.0514 78.0049C30.5667 76.7732 30.1606 75.5095 29.8445 74.2142C29.5633 72.9153 29.3863 71.6155 29.3123 70.3181C29.2794 69.0148 29.3508 67.7107 29.5183 66.4047C29.7266 65.0898 30.0274 63.7688 30.4126 62.4407C30.8286 61.1 31.3219 59.7465 31.8816 58.3831C32.4606 57.0033 33.0959 55.6097 33.7813 54.203C34.4701 52.7831 35.1994 51.3511 35.9639 49.9172C36.7195 48.476 37.5031 47.0401 38.3106 45.6194C39.1018 44.2116 39.9171 42.8367 40.7515 41.5064C41.5678 40.2196 42.407 38.9996 43.2694 37.867C44.1164 36.8035 44.9903 35.8464 45.8927 35.0115C46.7831 34.2646 47.7063 33.6508 48.6659 33.1745C49.6166 32.7842 50.6063 32.5247 51.634 32.3866C52.6541 32.3007 53.7159 32.3084 54.8156 32.3893C55.9065 32.4631 57.0341 32.5652 58.1995 32.6764C59.352 32.7086 60.5394 32.7052 61.7619 32.6516C62.9702 32.4743 64.2114 32.2262 65.4907 31.9101"
        stroke="url(#paint5_linear_102_3)" stroke-width="2" stroke-linecap="round" stroke-dasharray="9 7" />
  <path opacity="0.28"
        d="M68.6891 33.6535C69.9329 33.3165 71.1853 32.9473 72.4405 32.5652C73.6971 32.124 74.9594 31.7146 76.2235 31.3594C77.4878 31.0138 78.7535 30.7656 80.0162 30.6293C81.2778 30.5586 82.5309 30.6272 83.7691 30.8368C84.999 31.1409 86.2078 31.5878 87.3841 32.1716C88.5423 32.8453 89.6579 33.6402 90.7192 34.539C91.7505 35.5027 92.7141 36.5483 93.5998 37.6586C94.4416 38.7974 95.1936 39.979 95.8443 41.1876C96.4438 42.3961 96.935 43.616 97.3161 44.8393C97.6423 46.0435 97.8596 47.243 97.9666 48.4364C98.0344 49.6022 98.0076 50.7597 97.8929 51.912C97.7692 53.0357 97.5849 54.1597 97.3526 55.2836C97.1548 56.3857 96.9445 57.4961 96.7377 58.6177C96.6119 59.7223 96.5233 60.8434 96.4866 61.9868C96.5709 63.1186 96.7262 64.2753 96.9623 65.4583C97.3308 66.6356 97.7785 67.8441 98.2975 69.0823C98.9313 70.317 99.5941 71.5555 100.265 72.7923C100.99 74.0274 101.681 75.2587 102.314 76.4806C102.94 77.698 103.467 78.8992 103.882 80.0767C104.239 81.24 104.456 82.3692 104.527 83.4519C104.51 84.5068 104.341 85.5026 104.021 86.4231C103.607 87.3033 103.05 88.0969 102.362 88.7891C101.592 89.4326 100.708 89.9662 99.7222 90.3879C98.6808 90.7602 97.5594 91.0248 96.3725 91.1858C95.1545 91.3223 93.8908 91.3771 92.5949 91.369C91.2901 91.3867 89.9671 91.3827 88.6379 91.382C87.313 91.4738 85.9899 91.6199 84.6772 91.8456C83.3772 92.2258 82.0904 92.7239 80.8189 93.3557C79.564 94.1643 78.3244 95.1067 77.1031 96.1731C75.894 97.3797 74.6983 98.661 73.5166 99.9787C72.3407 101.328 71.1728 102.628 70.0128 103.82C68.8525 104.901 67.6925 105.781 66.5376 106.41C65.374 106.811 64.2395 106.907 63.1323 106.7C62.0181 106.262 60.9325 105.559 59.8782 104.63C58.8162 103.554 57.7897 102.331 56.8001 101.01C55.8083 99.668 54.8543 98.3106 53.9411 96.979C53.0289 95.7321 52.1558 94.5655 51.3274 93.4966C50.4969 92.5699 49.7065 91.7538 48.9563 91.0468C47.8404 90.2439 45.7576 89.1688 44.7776 88.7851C43.789 88.4831 41.8629 87.7259 40.9151 87.1943C39.9308 86.5647 37.9781 84.8369 37.0194 83.7416C36.3612 82.9614 35.7261 82.1038 35.1208 81.1734C34.5022 80.229 33.9216 79.2196 33.3888 78.1544C32.8589 77.0794 32.385 75.9565 31.9785 74.7883C31.5911 73.6179 31.2822 72.4068 31.0585 71.1579C30.87 69.9096 30.7803 68.655 30.7864 67.3958C30.8356 66.137 30.9804 64.872 31.2178 63.6026C31.4966 62.3286 31.8631 61.0488 32.3109 59.7634C32.7919 58.4689 33.3462 57.1657 33.9689 55.8541C34.6122 54.5354 35.3127 53.207 36.0658 51.8754C36.8251 50.5372 37.6276 49.1993 38.4653 47.8666C39.3001 46.5405 40.1657 45.2294 41.0545 43.9463C41.9328 42.6876 42.8316 41.4697 43.7498 40.3103C44.6503 39.1995 45.5707 38.1631 46.5082 37.2188C47.4271 36.3422 48.3637 35.5753 49.3215 34.926C50.2611 34.3571 51.2236 33.9137 52.2077 33.5991C53.1779 33.3536 54.1757 33.2271 55.1977 33.2085C56.2096 33.2285 57.2495 33.326 58.3201 33.4896C59.3806 33.6327 60.4737 33.8005 61.5973 33.972C62.7138 34.0655 63.8644 34.126 65.0487 34.1408C66.2262 34.0391 67.4386 33.8772 68.6875 33.6535"
        stroke="url(#paint6_linear_102_3)" stroke-width="2" stroke-linecap="round" />
  <path opacity="0.32"
        d="M71.5025 35.6621C72.7139 35.4227 73.9296 35.1547 75.1458 34.8739C76.3643 34.5356 77.5817 34.2245 78.7924 33.9595C79.9999 33.6975 81.1976 33.5198 82.377 33.4405C83.5511 33.4138 84.6995 33.5106 85.8174 33.7325C86.9208 34.037 87.987 34.4726 89.0051 35.0341C90.0007 35.6763 90.9406 36.436 91.8173 37.2956C92.6611 38.2194 93.4313 39.2265 94.1206 40.2976C94.7684 41.4069 95.3298 42.5592 95.7941 43.7443C96.2164 44.939 96.539 46.1488 96.7623 47.3643C96.9444 48.5702 97.0324 49.7723 97.0264 50.9659C96.994 52.1409 96.8837 53.3064 96.7019 54.461C96.5224 55.5965 96.2937 56.7237 96.0285 57.8462C95.8038 58.9528 95.5711 60.0623 95.3447 61.1736C95.1952 62.2783 95.0805 63.3925 95.0084 64.5211C95.0451 65.6477 95.1433 66.7927 95.3063 67.9578C95.5874 69.1245 95.9348 70.3162 96.3388 71.5277C96.8434 72.7432 97.3722 73.9517 97.9064 75.146C98.4901 76.3407 99.0457 77.5183 99.5496 78.6699C100.054 79.8135 100.475 80.925 100.798 81.9926C101.158 83.5428 101.158 86.2932 100.777 87.4511C100.151 88.4618 98.1999 89.9311 96.9212 90.3773C95.9866 90.6101 94.9757 90.7505 93.9043 90.8069C92.7979 90.8587 91.6459 90.8528 90.4571 90.8071C89.2506 90.8038 88.0186 90.7979 86.7715 90.8122C85.5173 90.9237 84.2526 91.0971 82.9863 91.3535C81.7158 91.752 80.4459 92.2592 79.1809 92.8832C77.9145 93.6607 76.6533 94.5502 75.3994 95.5375C74.149 96.6384 72.9061 97.7907 71.6752 98.9627C70.4485 100.149 69.2337 101.279 68.0374 102.303C66.8469 103.223 65.675 103.956 64.5266 104.462C63.3846 104.766 62.2935 104.795 61.2498 104.555C60.2144 104.108 59.2255 103.418 58.2848 102.519C57.3464 101.481 56.4522 100.298 55.5988 99.0146C54.7452 97.6941 53.9296 96.3431 53.1521 94.9985C52.3659 93.7094 51.6144 92.4761 50.8964 91.3208C50.1645 90.2768 49.464 89.3268 48.7916 88.4722C47.7691 87.4198 45.8181 85.8463 44.8817 85.2401C43.9265 84.7465 42.0651 83.7327 41.1554 83.1371C40.2193 82.4862 38.3951 80.817 37.5171 79.788C36.9211 79.0626 36.3536 78.2633 35.8208 77.3967C35.2788 76.5185 34.7809 75.5765 34.3301 74.5773C33.8859 73.572 33.4997 72.513 33.1809 71.4087C32.8814 70.3005 32.6603 69.1506 32.5223 67.9609C32.4194 66.7709 32.408 65.5718 32.4912 64.3669C32.6126 63.1636 32.827 61.9543 33.1294 60.7405C33.4718 59.5252 33.8976 58.3052 34.4034 57.0819C34.9412 55.8568 35.5527 54.6266 36.2283 53.3941C36.9262 52.1609 37.6833 50.9269 38.4899 49.6965C39.3074 48.4697 40.1677 47.2526 41.0641 46.0529C41.9599 44.8676 42.8867 43.709 43.8359 42.5882C44.7758 41.4989 45.736 40.4616 46.7113 39.4887C47.6718 38.5665 48.6434 37.7246 49.6273 36.9759C50.5927 36.2919 51.5682 35.7139 52.5536 35.2481C53.5203 34.8519 54.4984 34.5712 55.4878 34.406C56.4606 34.2977 57.4501 34.2924 58.4534 34.3819C59.4461 34.4949 60.4585 34.6758 61.4913 34.9087C62.5187 35.1143 63.5709 35.3399 64.6503 35.5651C65.7279 35.7135 66.8371 35.8328 67.9751 35.9116C69.1174 35.8804 70.2921 35.7977 71.5009 35.6637"
        stroke="url(#paint7_linear_102_3)" stroke-width="2" stroke-linecap="round" stroke-dasharray="4 5" />
  <path opacity="0.35"
        d="M73.881 37.8798C75.0496 37.7296 76.2176 37.5553 77.3822 37.3694C78.5527 37.1295 79.713 36.9094 80.8578 36.7277C82.0011 36.5442 83.1223 36.4306 84.215 36.4006C85.2967 36.4112 86.3425 36.5286 87.344 36.7552C88.3283 37.0506 89.2596 37.4622 90.1332 37.9879C90.9813 38.5848 91.763 39.2883 92.4746 40.0869C93.1507 40.9458 93.7504 41.8847 94.2675 42.8883C94.7481 43.9312 95.1413 45.0223 95.4442 46.1468C95.7114 47.2882 95.8882 48.4485 95.9771 49.6183C96.0339 50.7878 96.0105 51.9565 95.9058 53.1194C95.7877 54.2727 95.6047 55.4173 95.3635 56.5506C95.1333 57.6723 94.8655 58.7849 94.5696 59.8897C94.3162 60.9879 94.0584 62.0824 93.8103 63.1764C93.6331 64.2686 93.4873 65.3674 93.3777 66.4735C93.3654 67.5856 93.4047 68.7098 93.4974 69.8463C93.6935 70.9911 93.9442 72.1516 94.2401 73.3235C94.625 74.5052 95.0282 75.6665 95.4372 76.8043C95.8926 77.9441 96.3239 79.0539 96.7132 80.1236C97.1078 81.1876 97.4339 82.2037 97.681 83.1646C97.9523 84.5442 97.9015 86.9036 97.5574 87.8488C97.0089 88.6524 95.3049 89.7346 94.1853 90.0219C93.3629 90.1654 92.4685 90.2334 91.5155 90.2355C90.5243 90.2494 89.4843 90.2242 88.4052 90.1754C87.2994 90.1798 86.1602 90.195 84.9968 90.2397C83.8146 90.3819 82.6111 90.586 81.3911 90.867C80.1584 91.2768 78.9119 91.7814 77.6594 92.3849C76.3942 93.1172 75.1255 93.9391 73.8564 94.8365C72.5827 95.82 71.3147 96.838 70.0577 97.8588C68.8035 98.8831 67.5675 99.8452 66.3558 100.704C65.1563 101.466 63.9868 102.059 62.856 102.448C61.7434 102.659 60.6962 102.627 59.714 102.356C58.7506 101.9 57.8498 101.229 57.0069 100.367C56.1754 99.374 55.3945 98.2431 54.6635 97.0102C53.9328 95.7307 53.2407 94.4073 52.5866 93.0736C51.921 91.7724 51.2868 90.5068 50.6771 89.2953C50.0499 88.1687 49.4433 87.1182 48.8567 86.1471C47.9488 84.8865 46.1749 82.8568 45.3056 82.0311C44.4063 81.3306 42.6448 80.0013 41.7838 79.3034C40.8994 78.5853 39.2046 76.8857 38.4047 75.8829C37.865 75.1853 37.3579 74.4254 36.8913 73.6041C36.4191 72.7758 35.9921 71.8882 35.6175 70.947C35.2499 70.0018 34.9425 69.0053 34.703 67.9618C34.4827 66.9188 34.3393 65.8344 34.2791 64.7095C34.2507 63.5882 34.3134 62.456 34.4636 61.3174C34.6503 60.1829 34.9243 59.0436 35.2855 57.9011C35.6797 56.7639 36.1579 55.6231 36.7114 54.4842C37.2951 53.3487 37.9495 52.2129 38.6673 51.0842C39.4057 49.9594 40.2024 48.8442 41.0476 47.7409C41.9042 46.6501 42.8022 45.5782 43.7357 44.5329C44.6702 43.5085 45.6327 42.521 46.6171 41.5824C47.5931 40.6767 48.5851 39.829 49.59 39.0534C50.5783 38.3258 51.5753 37.6795 52.5782 37.1254C53.5601 36.6301 54.5472 36.2333 55.5353 35.9427C56.5043 35.7094 57.4779 35.5794 58.453 35.5509C59.4122 35.5655 60.3792 35.6694 61.3518 35.8526C62.3151 36.0477 63.2914 36.2988 64.2808 36.5916C65.269 36.852 66.2782 37.1261 67.3083 37.3992C68.342 37.5973 69.4042 37.7695 70.493 37.9046C71.5927 37.9412 72.7215 37.9329 73.8794 37.8796"
        stroke="url(#paint8_linear_102_3)" stroke-width="2" stroke-linecap="round" stroke-dasharray="3 2" />
  <path opacity="0.39"
        d="M75.7905 40.2366C76.9064 40.1711 78.0165 40.0835 79.1177 39.9829C80.2284 39.8304 81.3227 39.696 82.3941 39.59C83.4653 39.4757 84.5064 39.4193 85.5089 39.4321C86.9726 39.5422 89.6146 40.3012 90.7652 40.9693C91.8046 41.8282 93.4617 44.0678 94.063 45.405C94.4018 46.3581 94.6573 47.3578 94.8299 48.3942C94.9693 49.4521 95.0282 50.5327 95.0069 51.6262C94.9647 52.7272 94.8502 53.8329 94.6683 54.9344C94.4812 56.0382 94.2384 57.135 93.9489 58.2217C93.6774 59.3068 93.3752 60.383 93.0533 61.4508C92.7732 62.5213 92.4927 63.5853 92.2224 64.6463C92.0171 65.7159 91.8379 66.7854 91.6924 67.8562C91.6305 68.9406 91.6113 70.0313 91.6383 71.1271C91.7535 72.2374 91.9114 73.3539 92.1094 74.4729C92.3831 75.6041 92.6749 76.7078 92.9695 77.7779C93.3103 78.8531 93.6293 79.8871 93.9182 80.8734C94.3377 82.3169 94.8355 84.8689 94.8671 85.9478C94.3603 87.6278 92.5106 89.1858 91.5439 89.3857C90.4352 89.5093 87.8553 89.5295 86.4108 89.5008C85.3997 89.5351 84.3497 89.5867 83.2658 89.6726C82.1527 89.8474 81.0108 90.0818 79.8419 90.3843C78.6497 90.7963 77.4348 91.2884 76.2052 91.8607C74.955 92.5364 73.6941 93.2799 72.4281 94.0777C71.1535 94.9404 69.8808 95.8198 68.6213 96.6885C67.363 97.551 66.1277 98.3495 64.9216 99.0511C63.7318 99.6631 62.5827 100.124 61.4801 100.401C60.404 100.524 59.4055 100.436 58.4829 100.137C57.5863 99.6776 56.7621 99.027 56.0049 98.2051C55.2651 97.2614 54.5842 96.1905 53.9559 95.0189C53.3342 93.7932 52.7527 92.5164 52.208 91.2156C51.6526 89.929 51.1254 88.6573 50.621 87.4206C50.0956 86.245 49.5859 85.1259 49.092 84.0713C48.5672 83.0971 48.0545 82.1901 47.5515 81.3449C46.7533 80.2233 45.1583 78.2922 44.3637 77.4261C43.5398 76.6229 41.9317 74.9767 41.16 74.0921C40.3817 73.1722 38.9588 71.0988 38.3325 69.934C37.9243 69.1386 37.5661 68.2923 37.2618 67.399C36.9629 66.5034 36.7274 65.5627 36.5611 64.581C36.4124 63.6009 36.3388 62.5825 36.3479 61.529C36.3854 60.4807 36.5088 59.4237 36.7173 58.3628C36.9586 57.3095 37.2831 56.2536 37.6885 55.1995C38.1278 54.1548 38.6433 53.1111 39.2306 52.074C39.8457 51.0452 40.5288 50.0256 41.2714 49.0185C42.0345 48.0233 42.8514 47.0444 43.7129 46.0882C44.5875 45.1491 45.5008 44.2382 46.4466 43.3624C47.3941 42.5129 48.3661 41.7068 49.3556 40.9559C50.3389 40.2395 51.335 39.5856 52.339 39.0046C53.3283 38.4679 54.3209 38.0114 55.3133 37.6441C56.2872 37.3254 57.2603 37.0991 58.2276 36.9675C59.1783 36.8815 60.1256 36.8859 61.068 36.9786C61.9985 37.1016 62.9285 37.2976 63.8607 37.5622C64.7847 37.8269 65.7169 38.1353 66.6573 38.4793C67.6011 38.7866 68.5598 39.1014 69.5353 39.4129C70.5219 39.6549 71.5322 39.8737 72.5645 40.0608C73.6135 40.1568 74.6889 40.2154 75.7889 40.2363"
        stroke="url(#paint9_linear_102_3)" stroke-width="2" stroke-linecap="round" stroke-dasharray="5 11" />
  <path opacity="0.43"
        d="M77.213 42.6651C78.266 42.6734 79.3107 42.6629 80.3407 42.6389C81.383 42.5669 82.4044 42.506 83.3985 42.4677C85.3818 42.3653 87.2017 42.488 88.8058 42.8867C90.3212 43.4571 91.5672 44.3706 92.5072 45.5896C93.3189 47.0065 93.8107 48.6677 93.9815 50.4938C94.0479 52.425 93.8299 54.4365 93.3604 56.4642C92.8887 58.5259 92.2614 60.5774 91.5475 62.5935C90.9907 64.6466 90.4669 66.6933 90.0334 68.722C89.9257 69.7644 89.8524 70.8073 89.8171 71.8501C89.8576 72.9124 89.9334 73.9722 90.0433 75.0275C90.2166 76.0992 90.4071 77.1357 90.603 78.1323C90.8395 79.1377 91.0619 80.095 91.2618 80.9987C91.6854 82.7974 91.9092 84.3337 91.8913 85.5656C91.7452 86.7251 91.2903 87.553 90.5412 88.0564C89.6126 88.5072 88.4022 88.7009 86.9544 88.7083C85.3451 88.8244 83.5249 88.9209 81.538 89.1015C79.4143 89.6032 77.1436 90.3243 74.7744 91.2938C72.3141 92.5861 69.8049 94.0242 67.3212 95.4589C66.0828 96.1664 64.8687 96.8109 63.687 97.3615C62.5271 97.8337 61.4122 98.169 60.3483 98.3442C59.3201 98.3869 58.3725 98.2442 57.5054 97.9226C56.6741 97.4618 55.9193 96.8312 55.236 96.0506C53.9396 94.1779 52.8703 91.9018 51.974 89.4212C51.0521 86.9308 50.2151 84.4951 49.4359 82.2259C48.5401 80.1988 47.6632 78.381 46.811 76.7493C45.8249 75.3371 44.8701 74.0087 43.9698 72.6993C42.967 71.4807 42.0465 70.1792 41.2464 68.762C40.4014 67.353 39.7157 65.7921 39.2362 64.0829C38.9222 62.7823 38.6446 60.017 38.7085 58.5611C38.8033 57.588 38.9796 56.6127 39.2328 55.6391C39.5186 54.6738 39.8806 53.7132 40.3186 52.759C41.2829 50.8847 42.5269 49.0509 44.0017 47.2945C45.5528 45.6006 47.2872 44.0147 49.1457 42.5876C51.0108 41.2694 52.9498 40.1647 54.9098 39.3309C56.822 38.6579 58.7268 38.2962 60.5957 38.2732C62.4038 38.3846 64.1925 38.7895 65.9564 39.4452C67.7089 40.0683 69.4929 40.7934 71.3155 41.5417C72.2484 41.8191 73.2007 42.0784 74.1733 42.31C75.1654 42.4592 76.1786 42.5776 77.2114 42.6647"
        stroke="url(#paint10_linear_102_3)" stroke-width="2" stroke-linecap="round" stroke-dasharray="11 10" />
  <path opacity="0.47"
        d="M78.1525 45.0921C80.1401 45.1791 82.0646 45.2232 83.8816 45.287C85.7056 45.2892 87.3523 45.4646 88.7708 45.8551C90.1089 46.3703 91.1698 47.1667 91.9272 48.2172C92.5664 49.4352 92.8965 50.8734 92.9242 52.4616C92.8644 54.1604 92.5472 55.95 92.0107 57.7709C91.4818 59.6499 90.8221 61.5375 90.0913 63.4064C89.5028 65.3329 88.9441 67.2558 88.4617 69.1621C88.2262 71.1507 88.1109 73.1373 88.1127 75.0855C88.3342 77.1069 88.5861 78.9618 88.8101 80.6121C89.0806 82.2644 89.2037 83.6572 89.141 84.7641C88.7778 86.1967 86.5785 87.613 84.756 87.8234C83.3031 88.0308 81.6351 88.2322 79.7823 88.5082C77.7805 89.0544 75.6151 89.7683 73.3345 90.6609C70.9585 91.7944 68.5269 93.0036 66.119 94.1669C63.7359 95.2559 61.4755 96.0172 59.4152 96.2847C57.5048 96.1022 55.9258 95.2896 54.6604 93.9149C53.5087 92.159 52.5914 90.0283 51.8548 87.6836C51.1081 85.2834 50.4488 82.8837 49.8441 80.5879C49.1327 78.4604 48.432 76.4929 47.7433 74.6911C46.9259 73.0685 46.1272 71.5413 45.3718 70.0657C44.5201 68.6825 43.7425 67.2685 43.0791 65.7949C42.3763 64.3435 41.8295 62.7926 41.4812 61.1413C41.1642 59.5021 41.0922 57.7644 41.3085 55.9495C41.6202 54.1665 42.2324 52.4062 43.1168 50.7029C44.1077 49.0487 45.3501 47.4682 46.7975 45.9948C48.3136 44.5931 49.9913 43.3277 51.7724 42.2417C53.5612 41.2642 55.409 40.5084 57.2618 40.0152C59.0742 39.6583 60.87 39.5837 62.6192 39.8051C64.322 40.1203 65.996 40.6785 67.6376 41.4396C69.2848 42.1437 70.9502 42.9246 72.6453 43.7171C74.4152 44.2702 76.2538 44.7334 78.151 45.0916"
        stroke="url(#paint11_linear_102_3)" stroke-width="2" stroke-linecap="round" stroke-dasharray="5 9" />
  <path opacity="0.51"
        d="M78.6277 47.4545C80.4666 47.659 82.2307 47.8187 83.8776 47.9817C85.5417 48.0741 87.0215 48.2942 88.2757 48.6714C89.4617 49.138 90.3735 49.8247 90.994 50.714C91.5106 51.7417 91.7341 52.9558 91.6795 54.3072C91.5496 55.7656 91.1866 57.3194 90.6291 58.9172C90.0826 60.5886 89.4228 62.2875 88.6996 63.9809C88.1021 65.7505 87.5236 67.5245 87.0084 69.2832C86.6938 71.1335 86.4772 72.9726 86.3548 74.7677C86.4168 76.6391 86.5114 78.3442 86.5956 79.8532C86.727 81.3731 86.751 82.6516 86.6328 83.6724C86.2484 85.0273 84.2443 86.5293 82.5894 86.8867C81.2592 87.1986 79.7144 87.503 77.9788 87.8632C76.0954 88.4387 74.0404 89.1282 71.8666 89.9293C69.6019 90.9001 67.2812 91.8892 64.984 92.7964C62.7207 93.6175 60.5784 94.1378 58.6356 94.2221C56.8505 93.9293 55.3903 93.1021 54.2388 91.7961C53.2131 90.1567 52.4252 88.1768 51.8198 85.9855C51.224 83.7083 50.7218 81.3886 50.2771 79.122C49.7438 76.9571 49.2215 74.9073 48.7053 72.9932C48.0736 71.2161 47.4515 69.5329 46.8626 67.9239C46.1865 66.3964 45.5755 64.8785 45.0651 63.3469C44.5212 61.8464 44.122 60.2969 43.9061 58.6971C43.7187 57.116 43.7582 55.4836 44.0618 53.8188C44.4494 52.1888 45.1047 50.6177 46.0004 49.1339C46.9865 47.7031 48.1955 46.3767 49.5795 45.1832C51.0224 44.0641 52.6014 43.1051 54.2635 42.3377C55.9333 41.6686 57.6477 41.2218 59.3555 41.0247C61.0322 40.9321 62.6862 41.0947 64.2874 41.5101C65.8619 41.9819 67.4041 42.6529 68.9096 43.4833C70.4389 44.244 71.9814 45.0603 73.5405 45.8783C75.186 46.4832 76.8871 47.0125 78.6277 47.4545Z"
        stroke="url(#paint12_linear_102_3)" stroke-width="2" stroke-linecap="round" stroke-dasharray="4 4" />
  <path opacity="0.54"
        d="M78.6775 49.6932C80.3574 49.9961 81.9559 50.2513 83.4337 50.4944C84.9378 50.6667 86.2628 50.9228 87.37 51.2897C88.821 52.0084 90.2612 54.4083 90.2554 56.0401C90.1049 57.2679 89.7425 58.5879 89.2051 59.9617C88.6806 61.4168 88.0505 62.912 87.3611 64.4187C86.7753 66.0075 86.1974 67.6126 85.6651 69.2085C85.2951 70.8977 84.9979 72.5769 84.7721 74.2132C84.6977 75.9251 84.6554 77.4834 84.6108 78.8639C84.6133 80.2644 84.535 81.4514 84.3501 82.4156C83.909 83.7357 81.9864 85.3891 80.4414 85.9031C79.2019 86.3125 77.7539 86.7072 76.1203 87.1305C74.3503 87.7161 72.4155 88.3639 70.3621 89.0633C68.2339 89.8734 66.0527 90.6571 63.8965 91.3301C61.7824 91.9117 59.7844 92.2175 57.979 92.1446C56.3282 91.7581 54.9885 90.9236 53.9428 89.6861C53.0303 88.1635 52.3497 86.3372 51.8539 84.3087C51.3845 82.1773 51.0178 79.9759 50.7133 77.7858C50.3445 75.6458 49.993 73.5786 49.6472 71.6142C49.2051 69.7463 48.7709 67.9663 48.3625 66.2633C47.8756 64.6319 47.4451 63.0339 47.1018 61.4616C46.7271 59.9236 46.4817 58.3805 46.3969 56.8337C46.34 55.3098 46.4837 53.7807 46.8575 52.2628C47.3055 50.782 47.9836 49.3981 48.8639 48.1277C49.822 46.9122 50.966 45.8286 52.255 44.8977C53.5941 44.0383 55.0426 43.353 56.5547 42.8655C58.0749 42.4622 59.623 42.2746 61.1592 42.3148C62.6769 42.435 64.1669 42.7788 65.6063 43.3311C67.0358 43.9142 68.4333 44.6579 69.798 45.5246C71.1991 46.3147 72.6095 47.1435 74.0299 47.9701C75.5429 48.6109 77.0981 49.1889 78.6775 49.6932Z"
        stroke="url(#paint13_linear_102_3)" stroke-width="2" stroke-linecap="round" stroke-dasharray="9 11" />
  <path opacity="0.58"
        d="M78.3515 51.7656C79.8662 52.1462 81.2979 52.476 82.613 52.7834C83.9616 53.0214 85.1377 53.3098 86.1155 53.6701C87.4084 54.3167 88.6787 56.3204 88.6649 57.666C88.533 58.6841 88.2061 59.7874 87.7213 60.9477C87.2486 62.1911 86.6752 63.4826 86.0406 64.7992C85.489 66.1982 84.9313 67.6233 84.3972 69.0492C83.9929 70.563 83.636 72.0751 83.3274 73.5527C83.1405 75.1003 82.9794 76.5165 82.8182 77.7788C82.698 79.0691 82.5174 80.179 82.2517 81.1032C81.7241 82.4051 79.7891 84.2186 78.3024 84.8708C77.1266 85.3578 75.758 85.8163 74.219 86.2744C72.5596 86.8487 70.7501 87.4382 68.8353 88.0304C66.8609 88.6857 64.8422 89.2778 62.8512 89.7415C60.9085 90.117 59.0744 90.2395 57.4215 90.0331C55.9158 89.5743 54.6975 88.7418 53.7548 87.5714C52.943 86.1666 52.3547 84.4933 51.9456 82.6328C51.5825 80.6659 51.3259 78.6098 51.1421 76.5374C50.918 74.4764 50.7186 72.4523 50.5334 70.5014C50.2753 68.6113 50.025 66.7926 49.795 65.0527C49.5033 63.3672 49.2581 61.7314 49.0824 60.1477C48.8836 58.5968 48.7923 57.0742 48.8358 55.5903C48.9041 54.1304 49.1411 52.7051 49.5735 51.3322C50.0691 49.9965 50.7513 48.7878 51.5955 47.7192C52.5063 46.7011 53.5639 45.8364 54.7345 45.1386C55.9485 44.5053 57.2451 44.0525 58.5861 43.7947C59.938 43.6063 61.3058 43.6202 62.655 43.8383C63.9989 44.1125 65.3165 44.579 66.5869 45.2197C67.8633 45.8658 69.1141 46.6432 70.3318 47.5143C71.6008 48.3081 72.8741 49.1323 74.1536 49.949C75.5293 50.6092 76.9336 51.2177 78.3515 51.7656Z"
        stroke="url(#paint14_linear_102_3)" stroke-width="2" stroke-linecap="round" stroke-dasharray="5 2" />
  <path opacity="0.62"
        d="M77.7065 53.6423C79.0559 54.0765 80.3224 54.4652 81.4808 54.822C83.1959 55.2718 85.7331 56.3859 86.4604 57.1456C86.8978 58.0778 86.6913 60.4807 86.1473 61.9077C85.7493 62.9543 85.2508 64.0537 84.6871 65.1858C84.1872 66.3969 83.6669 67.6404 83.1478 68.8964C82.7293 70.2315 82.3314 71.5731 81.9592 72.8916C81.6817 74.2754 81.4178 75.5522 81.1514 76.7032C80.9196 77.8858 80.6369 78.9227 80.2812 79.8122C79.8988 80.7125 79.3983 81.4691 78.7704 82.0952C78.0633 82.7462 77.1978 83.2976 76.1733 83.7704C75.0441 84.3048 73.7451 84.7958 72.2955 85.2605C70.7498 85.8024 69.0734 86.3202 67.3086 86.8002C65.5025 87.312 63.6647 87.7319 61.8556 88.0146C60.1001 88.214 58.4452 88.1859 56.9538 87.873C55.6003 87.3602 54.5069 86.538 53.6633 85.438C52.9458 84.1496 52.437 82.6288 52.102 80.9407C51.8216 79.1507 51.6532 77.2633 51.5664 75.339C51.4625 73.403 51.3956 71.4751 51.3515 69.5958C51.2555 67.7467 51.1746 65.9545 51.1146 64.2331C51.0067 62.5504 50.9369 60.925 50.9221 59.3686C50.8928 57.8391 50.9473 56.3654 51.1114 54.9576C51.2963 53.5758 51.6171 52.2587 52.0938 51.0278C52.6226 49.8309 53.293 48.786 54.0876 47.8985C54.9364 47.0562 55.896 46.3795 56.9356 45.8765C58.0138 45.4272 59.1507 45.16 60.3121 45.0765C61.4895 45.0487 62.6732 45.2057 63.836 45.5422C65.0052 45.9143 66.148 46.4485 67.253 47.1274C68.3772 47.7981 69.479 48.5717 70.5543 49.4203C71.6883 50.1948 72.8269 50.9939 73.9651 51.7849C75.1989 52.4459 76.4519 53.0678 77.7065 53.6423Z"
        stroke="url(#paint15_linear_102_3)" stroke-width="2" stroke-linecap="round" />
  <path opacity="0.66"
        d="M76.8082 55.3068C77.9935 55.778 79.1 56.2046 80.1062 56.598C81.6102 57.1053 83.8539 58.2038 84.5185 58.8762C84.9487 59.6679 84.8798 61.6593 84.4578 62.8471C84.1406 63.7221 83.7269 64.6487 83.2424 65.6128C82.8078 66.6474 82.3354 67.7192 81.8432 68.808C81.4261 69.9691 81.007 71.1429 80.5869 72.3077C80.2402 73.5291 79.8934 74.6687 79.5347 75.7108C79.2031 76.7828 78.8241 77.7453 78.3807 78.5889C77.9177 79.4495 77.3523 80.1976 76.6796 80.8395C75.9437 81.5044 75.073 82.0821 74.0646 82.5865C72.9767 83.1315 71.7441 83.6222 70.3868 84.0644C68.9572 84.551 67.4221 84.9879 65.8204 85.3573C64.1932 85.733 62.5453 86.0041 60.9328 86.1339C59.3733 86.1895 57.9071 86.0417 56.5852 85.6493C55.3869 85.1023 54.4185 84.3036 53.6724 83.2778C53.0428 82.1039 52.6049 80.7337 52.329 79.2169C52.116 77.6114 52.0159 75.9081 52.0026 74.1576C51.992 72.3807 52.0293 70.595 52.1 68.834C52.1415 67.0865 52.2033 65.3776 52.289 63.7308C52.3423 62.1093 52.4293 60.5453 52.5587 59.0561C52.6794 57.5906 52.8658 56.194 53.1344 54.8836C53.4205 53.5973 53.8114 52.3949 54.3178 51.3011C54.8676 50.24 55.5174 49.3427 56.2539 48.6107C57.0335 47.9194 57.8888 47.3969 58.7972 47.0457C59.738 46.7408 60.7161 46.6068 61.7055 46.6454C62.714 46.7238 63.7217 46.9671 64.7069 47.3663C65.7081 47.7865 66.6882 48.343 67.6346 49.0158C68.6125 49.6749 69.5734 50.4165 70.5124 51.2162C71.5125 51.9523 72.517 52.7084 73.5189 53.4602C74.6089 54.1068 75.7117 54.7246 76.8082 55.3068Z"
        stroke="url(#paint16_linear_102_3)" stroke-width="2" stroke-linecap="round" stroke-dasharray="7 5" />
  <path opacity="0.7"
        d="M75.7191 56.7641C76.7435 57.2526 77.6952 57.7022 78.5596 58.117C79.8588 58.6656 81.8259 59.7691 82.4328 60.3853C82.8587 61.0777 82.9258 62.7623 82.6226 63.7577C82.225 64.8791 81.079 67.4151 80.4121 68.8073C80.0117 69.8022 79.586 70.8151 79.1355 71.8289C78.7389 72.8926 78.3264 73.8959 77.8906 74.8256C77.4785 75.7836 77.0155 76.6579 76.4947 77.4418C75.9598 78.2432 75.3367 78.9567 74.6218 79.5835C73.8603 80.228 72.9848 80.7958 72.0002 81.2911C70.9568 81.8125 69.7967 82.272 68.5413 82.6653C67.2348 83.081 65.8486 83.4276 64.4161 83.6902C62.9754 83.9452 61.5245 84.0887 60.1143 84.0939C58.7525 84.0371 57.4773 83.8018 56.328 83.3567C55.2871 82.7966 54.4436 82.0317 53.7961 81.085C53.2491 80.0245 52.8753 78.8044 52.6502 77.4608C52.4887 76.0389 52.4388 74.5288 52.4773 72.97C52.5338 71.3799 52.647 69.7661 52.8014 68.1664C52.9467 66.5648 53.1192 64.9903 53.3185 63.4668C53.5003 61.9575 53.7126 60.5024 53.9606 59.1215C54.2027 57.759 54.4962 56.4701 54.8479 55.276C55.2141 54.1039 55.6563 53.026 56.1803 52.0667C57.0493 50.7545 59.12 49.006 60.282 48.5656C61.5091 48.3396 64.0339 48.7041 65.2836 49.2592C66.1315 49.6848 66.9636 50.224 67.768 50.8593C68.61 51.475 69.4391 52.1613 70.2519 52.8935C71.1236 53.5735 71.9995 54.2726 72.8687 54.9719C73.8181 55.5889 74.7747 56.1887 75.7191 56.7641Z"
        stroke="url(#paint17_linear_102_3)" stroke-width="2" stroke-linecap="round" stroke-dasharray="6 2" />
  <path opacity="0.73"
        d="M74.4969 58.024C76.2983 58.9423 77.7986 59.7691 78.9019 60.5354C80.055 61.2591 80.6914 62.0746 80.8107 62.991C80.9151 64.0289 80.576 65.2411 79.8875 66.5738C79.3085 68.0973 78.5109 69.7565 77.5371 71.4501C76.7199 73.3076 75.7438 74.9638 74.5893 76.3536C73.4013 77.8058 71.8703 78.9821 70.0159 79.8686C68.005 80.808 65.6544 81.4773 63.1524 81.8089C60.6589 82.0797 58.2479 81.8627 56.2111 80.9972C54.5311 79.7979 53.5177 77.9554 53.0893 75.6719C52.8984 73.1492 53.0794 70.3575 53.4903 67.5468C53.9134 64.7048 54.4672 61.948 55.1282 59.4611C55.7921 57.0285 56.6256 54.8902 57.6579 53.2074C58.7919 51.6328 60.0641 50.687 61.3852 50.3313C62.8059 50.0837 64.2403 50.3933 65.5975 51.1706C67.0569 51.9657 68.4776 53.1064 69.8178 54.4503C71.3799 55.6247 72.9676 56.8495 74.4969 58.024Z"
        stroke="url(#paint18_linear_102_3)" stroke-width="2" stroke-linecap="round" />
  <path opacity="0.77"
        d="M73.1901 59.1145C74.6902 60.0172 75.9287 60.8469 76.8453 61.6157C78.1143 62.7277 78.5924 65.3805 77.922 67.0312C77.446 68.3065 76.7179 69.697 75.7606 71.1201C74.9114 72.6755 73.8709 74.08 72.6562 75.2762C71.4258 76.5265 69.9102 77.5437 68.1568 78.2975C66.3148 79.0741 64.2341 79.5735 62.0809 79.7342C59.9673 79.8275 57.9526 79.4812 56.2641 78.5902C54.8625 77.4649 54.019 75.8363 53.6751 73.8678C53.5394 71.725 53.7552 69.3487 54.2075 66.9463C54.7068 64.5056 55.3523 62.1227 56.0995 59.9702C56.8637 57.8615 57.7554 56.0198 58.7683 54.5967C59.857 53.2663 60.9992 52.4963 62.1349 52.2409C63.3508 52.0684 64.554 52.3702 65.684 53.0596C66.9159 53.7525 68.1182 54.7374 69.2533 55.8949C70.5814 56.9277 71.9198 58.0263 73.1901 59.1145Z"
        stroke="url(#paint19_linear_102_3)" stroke-width="2" stroke-linecap="round" stroke-dasharray="5 5" />
  <path opacity="0.81"
        d="M71.839 60.0657C73.0515 60.9203 74.0466 61.727 74.7812 62.483C75.8298 63.5705 76.3088 65.9783 75.7772 67.391C75.3781 68.4542 74.7207 69.6 73.8077 70.7658C72.9665 72.0334 71.9228 73.1801 70.7186 74.1546C69.5102 75.1732 68.075 75.9921 66.479 76.5747C64.8428 77.1641 63.0571 77.4917 61.2582 77.5041C59.5153 77.4574 57.8777 77.0336 56.5221 76.1646C55.3835 75.1406 54.7004 73.7346 54.4334 72.0762C54.337 70.2995 54.5564 68.3389 55.0038 66.3524C55.5106 64.3338 56.1731 62.3559 56.9346 60.568C57.7217 58.8109 58.6082 57.2807 59.5711 56.1109C60.5878 55.0146 61.6042 54.3915 62.584 54.1986C63.626 54.0635 64.6394 54.3199 65.5845 54.8922C66.6238 55.4625 67.636 56.2767 68.5897 57.2436C69.7005 58.123 70.8043 59.0837 71.839 60.0657Z"
        stroke="url(#paint20_linear_102_3)" stroke-width="2" stroke-linecap="round" stroke-dasharray="6 8" />
  <path opacity="0.85"
        d="M70.4639 60.9101C71.7947 62.0648 73.551 64.1977 73.8528 65.2524C73.9356 66.3799 72.8565 68.9191 71.7268 70.3038C70.9341 71.2982 69.9501 72.1861 68.8276 72.9283C67.7099 73.7031 66.4237 74.3073 65.0393 74.7058C63.6469 75.1036 62.173 75.2708 60.7296 75.1676C59.3423 75.0211 58.0598 74.5668 57.0109 73.7641C56.12 72.8678 55.589 71.6903 55.3899 70.3365C55.319 68.9107 55.5188 67.3492 55.9229 65.7706C56.3876 64.1721 57.0031 62.6038 57.7158 61.1838C58.454 59.7876 59.2799 58.5734 60.1583 57.6466C61.517 56.5265 64.1228 56.1079 65.3477 56.6493C66.2174 57.0938 67.0628 57.7358 67.8526 58.5142C68.7605 59.2379 69.6498 60.0513 70.4639 60.9101Z"
        stroke="url(#paint21_linear_102_3)" stroke-width="2" stroke-linecap="round" stroke-dasharray="6 1" />
  <path opacity="0.89"
        d="M69.0802 61.6778C70.5726 62.9804 71.4161 64.3191 71.5067 65.5609C71.7079 66.8681 71.0899 68.3096 69.6052 69.6495C68.2173 71.1749 66.1552 72.2597 63.9013 72.7108C61.6759 73.1509 59.3885 72.7938 57.7563 71.4462C56.535 69.8883 56.3813 67.5915 57.0083 65.225C57.8199 62.8161 59.1328 60.5558 60.6366 59.1271C62.2169 57.8477 63.735 57.673 65.0125 58.3213C66.5 58.9696 67.9466 60.1897 69.0802 61.6778Z"
        stroke="url(#paint22_linear_102_3)" stroke-width="2" stroke-linecap="round" stroke-dasharray="3 7" />
  <path opacity="0.92"
        d="M67.686 62.394C68.709 63.4544 69.2363 64.5819 69.2254 65.6194C69.294 66.6889 68.7558 67.7966 67.5637 68.7386C66.4175 69.7842 64.8003 70.4455 63.1176 70.6192C61.4796 70.7878 59.8674 70.3691 58.7701 69.2727C57.9078 68.0761 57.8071 66.4179 58.2869 64.7536C58.8842 63.0757 59.904 61.5094 61.1134 60.5184C62.3639 59.6158 63.584 59.4726 64.6191 59.9098C65.7784 60.3532 66.8755 61.2414 67.686 62.394Z"
        stroke="url(#paint23_linear_102_3)" stroke-width="2" stroke-linecap="round" stroke-dasharray="8 5" />
  <path opacity="0.96"
        d="M66.2699 63.0719C67.5881 64.5614 67.4512 66.4263 65.7429 67.5362C64.1006 68.8327 61.4343 68.8407 60.0475 67.3141C59.083 65.64 59.986 63.063 61.6853 61.8194C63.4445 60.7443 65.3473 61.4459 66.2699 63.0719Z"
        stroke="url(#paint24_linear_102_3)" stroke-width="2" stroke-linecap="round" stroke-dasharray="5 6" />
  <defs>
    <linearGradient id="paint0_linear_102_3" x1="4273.92" y1="-2036.44" x2="8533.93" y2="6697.86"
                    gradientUnits="userSpaceOnUse">
      <stop stop-color="#1DB8C3" />
      <stop offset="1" stop-color="#F570AE" />
    </linearGradient>
    <linearGradient id="paint1_linear_102_3" x1="4245.87" y1="-1666.13" x2="7746.52" y2="7015.72"
                    gradientUnits="userSpaceOnUse">
      <stop stop-color="#1DB8C3" />
      <stop offset="1" stop-color="#F570AE" />
    </linearGradient>
    <linearGradient id="paint2_linear_102_3" x1="4187.44" y1="-1310.58" x2="6957.86" y2="7256.58"
                    gradientUnits="userSpaceOnUse">
      <stop stop-color="#1DB8C3" />
      <stop offset="1" stop-color="#F570AE" />
    </linearGradient>
    <linearGradient id="paint3_linear_102_3" x1="4100.46" y1="-972.144" x2="6174.7" y2="7422.04"
                    gradientUnits="userSpaceOnUse">
      <stop stop-color="#1DB8C3" />
      <stop offset="1" stop-color="#F570AE" />
    </linearGradient>
    <linearGradient id="paint4_linear_102_3" x1="3987.05" y1="-653.009" x2="5403.6" y2="7513.93"
                    gradientUnits="userSpaceOnUse">
      <stop stop-color="#1DB8C3" />
      <stop offset="1" stop-color="#F570AE" />
    </linearGradient>
    <linearGradient id="paint5_linear_102_3" x1="3849.37" y1="-355.129" x2="4650.61" y2="7532.99"
                    gradientUnits="userSpaceOnUse">
      <stop stop-color="#1DB8C3" />
      <stop offset="1" stop-color="#F570AE" />
    </linearGradient>
    <linearGradient id="paint6_linear_102_3" x1="3689.39" y1="-80.2831" x2="3921.78" y2="7482.7"
                    gradientUnits="userSpaceOnUse">
      <stop stop-color="#1DB8C3" />
      <stop offset="1" stop-color="#F570AE" />
    </linearGradient>
    <linearGradient id="paint7_linear_102_3" x1="3498.89" y1="169.435" x2="3212.29" y2="7367.71"
                    gradientUnits="userSpaceOnUse">
      <stop stop-color="#1DB8C3" />
      <stop offset="1" stop-color="#F570AE" />
    </linearGradient>
    <linearGradient id="paint8_linear_102_3" x1="3304.61" y1="392.993" x2="2551.54" y2="7192.52"
                    gradientUnits="userSpaceOnUse">
      <stop stop-color="#1DB8C3" />
      <stop offset="1" stop-color="#F570AE" />
    </linearGradient>
    <linearGradient id="paint9_linear_102_3" x1="3099.19" y1="590.328" x2="1936.13" y2="6952.36"
                    gradientUnits="userSpaceOnUse">
      <stop stop-color="#1DB8C3" />
      <stop offset="1" stop-color="#F570AE" />
    </linearGradient>
    <linearGradient id="paint10_linear_102_3" x1="2877.95" y1="759.017" x2="1357.8" y2="6679.63"
                    gradientUnits="userSpaceOnUse">
      <stop stop-color="#1DB8C3" />
      <stop offset="1" stop-color="#F570AE" />
    </linearGradient>
    <linearGradient id="paint11_linear_102_3" x1="2642.65" y1="897.397" x2="829.348" y2="6335.69"
                    gradientUnits="userSpaceOnUse">
      <stop stop-color="#1DB8C3" />
      <stop offset="1" stop-color="#F570AE" />
    </linearGradient>
    <linearGradient id="paint12_linear_102_3" x1="2406.65" y1="1008.02" x2="355.966" y2="5963.69"
                    gradientUnits="userSpaceOnUse">
      <stop stop-color="#1DB8C3" />
      <stop offset="1" stop-color="#F570AE" />
    </linearGradient>
    <linearGradient id="paint13_linear_102_3" x1="2168.72" y1="1089.92" x2="-59.1278" y2="5554.38"
                    gradientUnits="userSpaceOnUse">
      <stop stop-color="#1DB8C3" />
      <stop offset="1" stop-color="#F570AE" />
    </linearGradient>
    <linearGradient id="paint14_linear_102_3" x1="1931.8" y1="1143.46" x2="-413.638" y2="5115.71"
                    gradientUnits="userSpaceOnUse">
      <stop stop-color="#1DB8C3" />
      <stop offset="1" stop-color="#F570AE" />
    </linearGradient>
    <linearGradient id="paint15_linear_102_3" x1="1703.64" y1="1172.71" x2="-699.613" y2="4656.43"
                    gradientUnits="userSpaceOnUse">
      <stop stop-color="#1DB8C3" />
      <stop offset="1" stop-color="#F570AE" />
    </linearGradient>
    <linearGradient id="paint16_linear_102_3" x1="1476.66" y1="1171.78" x2="-933.521" y2="4186.65"
                    gradientUnits="userSpaceOnUse">
      <stop stop-color="#1DB8C3" />
      <stop offset="1" stop-color="#F570AE" />
    </linearGradient>
    <linearGradient id="paint17_linear_102_3" x1="1253.35" y1="1140.12" x2="-1106.88" y2="3699.67"
                    gradientUnits="userSpaceOnUse">
      <stop stop-color="#1DB8C3" />
      <stop offset="1" stop-color="#F570AE" />
    </linearGradient>
    <linearGradient id="paint18_linear_102_3" x1="1050.7" y1="1092.22" x2="-1197.41" y2="3209.25"
                    gradientUnits="userSpaceOnUse">
      <stop stop-color="#1DB8C3" />
      <stop offset="1" stop-color="#F570AE" />
    </linearGradient>
    <linearGradient id="paint19_linear_102_3" x1="858.93" y1="1019.12" x2="-1221.2" y2="2718.05"
                    gradientUnits="userSpaceOnUse">
      <stop stop-color="#1DB8C3" />
      <stop offset="1" stop-color="#F570AE" />
    </linearGradient>
    <linearGradient id="paint20_linear_102_3" x1="683.635" y1="925.53" x2="-1194.92" y2="2250.7"
                    gradientUnits="userSpaceOnUse">
      <stop stop-color="#1DB8C3" />
      <stop offset="1" stop-color="#F570AE" />
    </linearGradient>
    <linearGradient id="paint21_linear_102_3" x1="522.901" y1="807.703" x2="-1108.34" y2="1794.06"
                    gradientUnits="userSpaceOnUse">
      <stop stop-color="#1DB8C3" />
      <stop offset="1" stop-color="#F570AE" />
    </linearGradient>
    <linearGradient id="paint22_linear_102_3" x1="389.698" y1="686.202" x2="-971.219" y2="1383.22"
                    gradientUnits="userSpaceOnUse">
      <stop stop-color="#1DB8C3" />
      <stop offset="1" stop-color="#F570AE" />
    </linearGradient>
    <linearGradient id="paint23_linear_102_3" x1="274.002" y1="545.459" x2="-776.909" y2="993.277"
                    gradientUnits="userSpaceOnUse">
      <stop stop-color="#1DB8C3" />
      <stop offset="1" stop-color="#F570AE" />
    </linearGradient>
    <linearGradient id="paint24_linear_102_3" x1="180.663" y1="393.641" x2="-538.661" y2="641.885"
                    gradientUnits="userSpaceOnUse">
      <stop stop-color="#1DB8C3" />
      <stop offset="1" stop-color="#F570AE" />
    </linearGradient>
  </defs>
</svg>
