<svg width="132" height="132" viewBox="0 0 132 132" fill="none" xmlns="http://www.w3.org/2000/svg">
<path d="M42.7626 25.8671C44.1301 25.2429 45.5653 24.7614 47.0614 24.4154C48.5904 24.1299 50.1769 23.962 51.8137 23.8974C53.471 23.8637 55.171 23.9069 56.9076 24.014C58.6549 24.1141 60.4333 24.2524 62.2358 24.418C64.0407 24.545 65.8684 24.6823 67.7139 24.8198C69.5557 24.9023 71.4168 24.9806 73.2866 25.0548C75.1497 25.0681 77.0222 25.0823 78.8939 25.1022C80.7496 25.0748 82.5959 25.068 84.4211 25.0946C86.2116 25.0937 87.9644 25.1467 89.6623 25.2655C91.2958 25.3873 92.8536 25.5977 94.3117 25.9099C95.6788 26.254 96.9248 26.7177 98.0295 27.3106C99.0223 27.9546 99.8623 28.7407 100.542 29.6672C101.108 30.6491 101.519 31.7723 101.782 33.0297C101.965 34.3264 102.029 35.7411 101.995 37.2591C101.948 38.7835 101.855 40.3852 101.744 42.0474C101.702 43.6739 101.701 45.3301 101.766 47.0006C101.977 48.6017 102.286 50.1617 102.701 51.6777C103.281 53.1125 103.96 54.5105 104.725 55.875C105.627 57.178 106.582 58.4694 107.565 59.7596C108.629 61.0242 109.675 62.3158 110.681 63.6427C111.7 64.9825 112.639 66.3816 113.475 67.8447C114.273 69.3459 114.941 70.9209 115.472 72.5666C115.931 74.2545 116.24 76.0051 116.397 77.8064C116.466 79.6312 116.383 81.4822 116.149 83.334C115.826 85.1741 115.357 86.9821 114.746 88.7301C114.049 90.4202 113.215 92.0138 112.249 93.4834C111.205 94.8579 110.036 96.0819 108.749 97.1413C107.397 98.0921 105.94 98.874 104.389 99.4865C102.795 100.014 101.128 100.4 99.403 100.659C97.6723 100.899 95.9123 101.064 94.1435 101.186C92.4133 101.376 90.7029 101.585 89.0313 101.84C87.4375 102.248 85.9014 102.749 84.4363 103.358C83.0643 104.159 81.7928 105.053 80.6134 106.023C79.5039 107.143 78.462 108.292 77.4715 109.442C76.5082 110.661 75.5619 111.818 74.6201 112.881C73.6592 113.927 72.6719 114.828 71.649 115.565C70.5705 116.221 69.439 116.684 68.2522 116.953C66.9922 117.117 65.6712 117.086 64.2964 116.872C62.8475 116.56 61.3495 116.086 59.8123 115.47C58.2135 114.785 56.5873 113.987 54.9435 113.093C53.2564 112.17 51.5657 111.177 49.8855 110.132C48.1782 109.084 46.4927 108.003 44.8395 106.897C43.1798 105.804 41.561 104.693 39.9959 103.571C38.4391 102.463 36.9411 101.34 35.5147 100.204C34.1053 99.0776 32.7732 97.931 31.5242 96.7617C30.3037 95.5927 29.1678 94.3931 28.1259 93.1601C27.1175 91.9196 26.2024 90.6408 25.3855 89.3229C24.6023 87.9904 23.9167 86.6138 23.3322 85.1968C22.775 83.7665 22.3278 82.3287 21.9849 80.8898C21.6585 79.441 21.4285 77.9968 21.2877 76.5606C21.1504 75.1245 21.0966 73.7027 21.1197 72.3038C21.1348 70.9106 21.2197 69.5438 21.3707 68.2104C21.5016 66.8869 21.6936 65.5975 21.9431 64.3459C22.1645 63.1061 22.4385 61.9011 22.7643 60.733C23.0565 59.5689 23.399 58.4353 23.787 57.3293C24.1394 56.2158 24.5373 55.1191 24.9808 54.0358C25.3866 52.93 25.8368 51.8238 26.3298 50.7146C26.786 49.5664 27.2867 48.4036 27.8283 47.2262C28.3381 46.0021 28.8918 44.7549 29.4892 43.4917C30.0606 42.1825 30.6814 40.8581 31.3501 39.5299C32.0056 38.1708 32.7167 36.8201 33.489 35.4929C34.2598 34.1629 35.101 32.8785 36.0172 31.6534C36.9474 30.4606 37.9632 29.3522 39.0673 28.3446C40.2015 27.3988 41.4316 26.5696 42.7612 25.8678" stroke="url(#paint0_linear_30_2582)" stroke-width="2" stroke-linecap="round" stroke-dasharray="10 2"/>
<path opacity="0.96" d="M46.7696 25.7071C48.132 25.1956 49.5532 24.8258 51.0299 24.585C52.5352 24.4068 54.09 24.3429 55.6912 24.3809C57.3125 24.452 58.9727 24.6022 60.6686 24.8155C62.3751 25.0296 64.1141 25.2857 65.8752 25.5709C67.6421 25.8278 69.4301 26.0986 71.2332 26.3771C73.0353 26.6061 74.8507 26.8383 76.6712 27.0702C78.4839 27.2485 80.2968 27.4317 82.0997 27.6243C83.8826 27.7714 85.6451 27.9406 87.373 28.1393C89.0613 28.3125 90.6985 28.534 92.2695 28.8131C93.7725 29.0904 95.1877 29.4444 96.4969 29.8858C97.7128 30.3477 98.8036 30.9135 99.7523 31.5881C100.592 32.2999 101.283 33.1301 101.818 34.0802C102.248 35.0706 102.531 36.1789 102.673 37.4011C102.746 38.6493 102.709 40.0004 102.578 41.4444C102.441 42.8892 102.261 44.4065 102.063 45.9825C101.932 47.5296 101.838 49.114 101.802 50.7246C101.904 52.2796 102.095 53.814 102.383 55.3181C102.828 56.7625 103.363 58.1841 103.98 59.585C104.728 60.9399 105.525 62.2887 106.354 63.6401C107.262 64.97 108.157 66.3238 109.02 67.703C109.901 69.0866 110.71 70.5166 111.426 71.9914C112.113 73.4862 112.679 75.0349 113.115 76.629C113.485 78.2444 113.713 79.8985 113.792 81.5764C113.793 83.2601 113.641 84.9467 113.343 86.6149C112.96 88.257 112.434 89.8518 111.767 91.3722C111.022 92.8317 110.143 94.1896 109.142 95.4216C108.069 96.5638 106.88 97.5629 105.586 98.4051C104.236 99.149 102.794 99.7392 101.269 100.177C99.7128 100.544 98.0949 100.785 96.4287 100.915C94.7596 101.037 93.0668 101.096 91.3668 101.12C89.7005 101.215 88.0483 101.332 86.4266 101.495C84.8665 101.802 83.3523 102.198 81.8923 102.693C80.5058 103.371 79.2035 104.134 77.982 104.969C76.816 105.951 75.7101 106.961 74.6525 107.977C73.617 109.064 72.6051 110.099 71.6061 111.054C70.5918 112.002 69.5666 112.82 68.5223 113.493C67.4348 114.096 66.3118 114.527 65.1524 114.777C63.935 114.931 62.6734 114.902 61.3722 114.699C60.0097 114.403 58.6115 113.945 57.1823 113.347C55.6986 112.678 54.1939 111.889 52.677 111C51.1197 110.072 49.5607 109.066 48.0086 108.001C46.4334 106.922 44.8788 105.799 43.3532 104.646C41.8181 103.495 40.3235 102.321 38.8797 101.131C37.4423 99.9492 36.0628 98.7526 34.7523 97.5437C33.4599 96.3412 32.2419 95.1226 31.1069 93.8877C30.0007 92.6515 28.9792 91.3949 28.0534 90.1153C27.1597 88.8296 26.3634 87.5166 25.6661 86.1759C25.0025 84.8249 24.4382 83.4425 23.9786 82.0334C23.5479 80.611 23.2249 79.195 23.0057 77.7888C22.8029 76.3761 22.6943 74.9752 22.6724 73.5929C22.6564 72.2081 22.7196 70.8447 22.8565 69.5102C22.986 68.1787 23.1804 66.8761 23.4379 65.61C23.6743 64.3473 23.9671 63.1221 24.3093 61.9338C24.6254 60.7491 24.9888 59.6005 25.3967 58.4856C25.7696 57.3693 26.1856 56.2787 26.6423 55.2164C27.0636 54.1391 27.5245 53.0786 28.0224 52.0289C28.4859 50.9536 28.9879 49.8799 29.5288 48.8044C30.0364 47.6889 30.5813 46.5635 31.1679 45.4264C31.7245 44.2447 32.3232 43.0477 32.9642 41.8405C33.5835 40.5921 34.2505 39.3383 34.9661 38.0855C35.6701 36.8081 36.4293 35.5481 37.247 34.3179C38.0639 33.0898 38.949 31.9115 39.9029 30.7969C40.871 29.7178 41.9174 28.7259 43.0454 27.8338C44.1975 27.0059 45.4371 26.2926 46.7682 25.7077" stroke="url(#paint1_linear_30_2582)" stroke-width="2" stroke-linecap="round" stroke-dasharray="2 2"/>
<path opacity="0.92" d="M50.7805 25.8633C52.1294 25.4624 53.5306 25.1972 54.9782 25.0597C56.4485 24.982 57.9652 25.0169 59.5199 25.1536C61.094 25.3243 62.7037 25.5741 64.3436 25.8913C65.9966 26.2127 67.6765 26.5808 69.3773 26.9824C71.0858 27.3614 72.8114 27.7617 74.5494 28.1747C76.2878 28.5474 78.0317 28.9267 79.7771 29.3105C81.5123 29.6473 83.2388 29.9936 84.9481 30.3488C86.6345 30.6645 88.2889 31.0005 89.8997 31.3624C91.4682 31.6977 92.9748 32.0749 94.4036 32.5023C95.7679 32.9221 97.0352 33.4052 98.1891 33.9635C99.2552 34.5301 100.193 35.1834 100.991 35.9274C101.689 36.6937 102.24 37.5576 102.639 38.5212C102.948 39.5103 103.115 40.5975 103.153 41.7821C103.129 42.9813 103.002 44.2694 102.79 45.6371C102.576 47.0052 102.319 48.4376 102.045 49.9295C101.837 51.3982 101.659 52.9091 101.529 54.4547C101.529 55.9586 101.61 57.4547 101.777 58.9364C102.087 60.3734 102.481 61.8 102.95 63.2177C103.541 64.5992 104.181 65.9816 104.848 67.3687C105.596 68.738 106.335 70.1238 107.045 71.5305C107.779 72.936 108.45 74.3722 109.038 75.8354C109.603 77.3091 110.059 78.813 110.395 80.3391C110.676 81.8728 110.821 83.4204 110.826 84.9678C110.762 86.5075 110.552 88.0287 110.202 89.5113C109.776 90.9599 109.212 92.3456 108.516 93.6483C107.748 94.8867 106.855 96.018 105.847 97.0255C104.778 97.9501 103.6 98.7354 102.329 99.375C101.011 99.9302 99.611 100.344 98.1405 100.619C96.6442 100.839 95.0934 100.948 93.503 100.96C91.9127 100.973 90.2995 100.935 88.679 100.87C87.0837 100.878 85.4987 100.907 83.935 100.981C82.4191 101.193 80.9348 101.487 79.4916 101.871C78.1014 102.425 76.7842 103.059 75.533 103.762C74.3246 104.603 73.1699 105.474 72.058 106.354C70.9662 107.306 69.8976 108.216 68.8477 109.059C67.7892 109.901 66.7286 110.634 65.6622 111.234C64.5635 111.78 63.4454 112.169 62.3051 112.395C61.1201 112.535 59.9074 112.506 58.6683 112.312C57.3821 112.03 56.0684 111.595 54.7364 111.021C53.3605 110.373 51.9695 109.606 50.5709 108.738C49.1394 107.819 47.7066 106.819 46.286 105.753C44.8444 104.663 43.4215 103.522 42.0271 102.345C40.6258 101.162 39.2636 99.9495 37.949 98.7181C36.641 97.4862 35.3902 96.2392 34.2046 94.9812C33.0378 93.7239 31.9442 92.4546 30.9311 91.1744C29.9457 89.8919 29.0464 88.595 28.24 87.2849C27.4676 85.9705 26.7897 84.6372 26.212 83.2867C25.6677 81.9304 25.224 80.5533 24.8841 79.1595C24.5735 77.7578 24.3668 76.3713 24.2624 75.0053C24.1737 73.6309 24.1763 72.279 24.2645 70.9532C24.3567 69.6243 24.525 68.3229 24.7626 67.0545C24.9927 65.7834 25.2861 64.5473 25.6347 63.347C25.9652 62.1475 26.3468 60.9819 26.7746 59.855C27.1731 58.7259 27.6157 57.6295 28.0975 56.5657C28.5445 55.4931 29.0301 54.4465 29.5519 53.4235C30.0374 52.382 30.5582 51.356 31.1128 50.3409C31.6327 49.2966 32.1885 48.2543 32.7776 47.2112C33.3362 46.1309 33.9308 45.0424 34.5633 43.9467C35.1695 42.8108 35.8161 41.6652 36.5036 40.5165C37.1708 39.3307 37.8859 38.1478 38.6474 36.9734C39.3994 35.7803 40.2028 34.6109 41.0649 33.4778C41.924 32.3508 42.8477 31.2784 43.8354 30.2742C44.8334 29.307 45.9038 28.4289 47.0471 27.6513C48.2104 26.9361 49.4536 26.3377 50.7789 25.8638" stroke="url(#paint2_linear_30_2582)" stroke-width="2" stroke-linecap="round" stroke-dasharray="2 6"/>
<path opacity="0.89" d="M54.752 26.3464C56.0805 26.051 57.4528 25.8863 58.8627 25.8471C60.2914 25.8642 61.7578 25.9937 63.2584 26.2217C64.7713 26.486 66.3172 26.8311 67.8897 27.2436C69.4711 27.6654 71.0779 28.1369 72.7013 28.6487C74.3301 29.1427 75.9736 29.6627 77.6232 30.2009C79.2729 30.7062 80.9241 31.2242 82.5691 31.7504C84.2022 32.2351 85.8202 32.7318 87.4126 33.2381C88.9795 33.7079 90.508 34.1955 91.9834 34.7076C93.414 35.1914 94.7775 35.7098 96.0575 36.2703C97.2714 36.8158 98.3864 37.4138 99.3862 38.0714C100.302 38.73 101.092 39.4561 101.744 40.2557C102.305 41.0644 102.726 41.954 103.005 42.923C103.201 43.9058 103.268 44.9683 103.21 46.1111C103.104 47.2607 102.902 48.4868 102.618 49.7808C102.339 51.0721 102.018 52.4244 101.678 53.831C101.402 55.2218 101.147 56.6584 100.934 58.1338C100.838 59.5821 100.812 61.031 100.863 62.4758C101.048 63.8892 101.304 65.3031 101.626 66.7153C102.064 68.1008 102.546 69.4917 103.052 70.8882C103.637 72.2686 104.217 73.6633 104.771 75.0692C105.356 76.4709 105.883 77.8887 106.337 79.3211C106.778 80.7518 107.121 82.1935 107.355 83.6392C107.544 85.0778 107.609 86.511 107.547 87.9245C107.422 89.3173 107.165 90.6737 106.778 91.9767C106.325 93.2369 105.741 94.424 105.036 95.5193C104.268 96.5513 103.386 97.4734 102.396 98.274C101.356 98.9966 100.217 99.5888 98.9941 100.044C97.7335 100.428 96.3985 100.684 95.0016 100.815C93.5842 100.904 92.1194 100.894 90.6196 100.802C89.1171 100.72 87.5945 100.596 86.0631 100.45C84.5497 100.376 83.0386 100.325 81.5413 100.317C80.0758 100.437 78.6318 100.631 77.215 100.909C75.837 101.343 74.5153 101.852 73.2503 102.425C72.0156 103.126 70.8261 103.858 69.6757 104.601C68.5383 105.417 67.4285 106.197 66.3382 106.924C65.2413 107.657 64.152 108.295 63.0661 108.82C61.9575 109.3 60.8407 109.64 59.7158 109.834C58.5578 109.954 57.3863 109.919 56.2001 109.732C54.9774 109.463 53.7414 109.048 52.4974 108.5C51.2159 107.881 49.9297 107.143 48.6427 106.301C47.3283 105.409 46.0203 104.429 44.7257 103.377C43.4141 102.296 42.1232 101.16 40.8631 99.9808C39.5956 98.7856 38.3681 97.5591 37.189 96.3091C36.0154 95.0546 34.8965 93.7815 33.8434 92.4955C32.8082 91.2084 31.8427 89.9106 30.9574 88.6045C30.0996 87.2966 29.325 85.9795 28.6408 84.655C27.9903 83.3271 27.4327 81.9894 26.9724 80.6457C26.5481 79.2948 26.2199 77.9333 25.9943 76.5678C25.7963 75.1939 25.7012 73.8439 25.7005 72.5232C25.7181 71.1963 25.8219 69.8991 26.007 68.6312C26.1964 67.3606 26.4593 66.1211 26.7871 64.9183C27.1072 63.7107 27.4869 62.5379 27.9172 61.4035C28.3301 60.2651 28.7905 59.1595 29.2915 58.0915C29.7673 57.0149 30.2806 55.9702 30.8291 54.9546C31.3467 53.9269 31.8963 52.9226 32.4772 51.9385C33.0264 50.9326 33.6055 49.9408 34.215 48.9594C34.7926 47.9482 35.4018 46.939 36.0429 45.9318C36.6534 44.8878 37.3011 43.8411 37.981 42.7914C38.6381 41.7029 39.3344 40.613 40.0705 39.5247C40.7874 38.4051 41.5495 37.2956 42.3565 36.2013C43.1524 35.095 44.0016 34.0183 44.9002 32.982C45.7985 31.9573 46.7554 30.9905 47.7699 30.0966C48.792 29.2404 49.8805 28.473 51.0338 27.808C52.2004 27.2039 53.4396 26.7135 54.7505 26.3468" stroke="url(#paint3_linear_30_2582)" stroke-width="2" stroke-linecap="round" stroke-dasharray="8 6"/>
<path opacity="0.85" d="M58.6351 27.165C59.9352 26.9703 61.27 26.9008 62.6353 26.9509C64.0122 27.0589 65.4208 27.2749 66.8545 27.5886C68.2991 27.9377 69.7695 28.3699 71.2583 28.8702C72.7573 29.3832 74.2735 29.9485 75.802 30.5569C77.3337 31.1551 78.8755 31.7839 80.4179 32.4354C81.9592 33.0611 83.4948 33.7007 85.0181 34.3538C86.5289 34.9719 88.019 35.6016 89.4737 36.2423C90.9033 36.8501 92.2886 37.4737 93.6139 38.1157C94.8954 38.7298 96.1057 39.3723 97.2272 40.0449C98.2875 40.7006 99.2461 41.3965 100.091 42.1381C100.861 42.87 101.507 43.6559 102.02 44.5006C102.452 45.3428 102.754 46.2468 102.92 47.2147C103.018 48.1847 102.994 49.2213 102.854 50.3217C102.676 51.4224 102.407 52.5856 102.065 53.8087C101.729 55.0275 101.353 56.3001 100.956 57.6267C100.62 58.9395 100.296 60.2986 100.006 61.7022C99.8236 63.0872 99.7004 64.4797 99.6427 65.8755C99.7064 67.2518 99.831 68.6337 100.014 70.0184C100.304 71.3864 100.63 72.761 100.98 74.1394C101.406 75.5081 101.828 76.8838 102.227 78.2634C102.663 79.6352 103.048 81.0141 103.37 82.3911C103.687 83.7607 103.915 85.1263 104.049 86.4774C104.15 87.8133 104.139 89.1247 104.015 90.4007C103.84 91.6465 103.545 92.8419 103.132 93.972C102.661 95.0536 102.077 96.0545 101.381 96.9596C100.632 97.801 99.779 98.5341 98.8303 99.1476C97.8386 99.6907 96.7592 100.111 95.6044 100.406C94.418 100.639 93.1675 100.755 91.8593 100.763C90.5373 100.738 89.1698 100.629 87.7688 100.447C86.3674 100.282 84.9436 100.081 83.5056 99.864C82.0802 99.719 80.6519 99.5956 79.2253 99.5092C77.8231 99.5449 76.4273 99.646 75.0475 99.8205C73.6929 100.14 72.3822 100.526 71.1176 100.972C69.8704 101.537 68.6624 102.132 67.4874 102.74C66.3215 103.418 65.1817 104.07 64.0631 104.675C62.9406 105.296 61.8297 105.834 60.7295 106.275C59.614 106.684 58.5012 106.968 57.3904 107.123C56.2542 107.216 55.1176 107.167 53.9783 106.981C52.8133 106.721 51.6443 106.325 50.4773 105.802C49.2828 105.213 48.0923 104.507 46.9084 103.7C45.7043 102.84 44.5124 101.893 43.3385 100.871C42.152 99.8147 40.9908 98.6985 39.8602 97.5347C38.728 96.3519 37.6349 95.1331 36.5905 93.8863C35.5525 92.6304 34.5693 91.3536 33.6488 90.0643C32.7468 88.7702 31.9128 87.4659 31.1573 86.1561C30.4272 84.8435 29.7771 83.5252 29.2174 82.2041C28.688 80.881 28.249 79.5552 27.9053 78.2275C27.5935 76.8975 27.3771 75.5655 27.2596 74.2342C27.1705 72.8979 27.1776 71.5936 27.2732 70.3226C27.3877 69.0483 27.584 67.8068 27.8559 66.5991C28.1338 65.3889 28.4795 64.2138 28.8849 63.0754C29.2862 61.9313 29.7404 60.8217 30.2434 59.7507C30.7288 58.6714 31.2591 57.6264 31.8255 56.6124C32.3711 55.5907 32.949 54.5958 33.5575 53.6281C34.1388 52.6439 34.7499 51.6822 35.3885 50.7384C35.997 49.7706 36.6336 48.8158 37.2963 47.871C37.931 46.8954 38.5941 45.9247 39.2868 44.9569C39.9541 43.9546 40.6522 42.9518 41.383 41.9515C42.0922 40.9192 42.8386 39.887 43.6207 38.8648C44.3873 37.8178 45.1951 36.7846 46.0459 35.7748C46.8872 34.7569 47.7736 33.775 48.7083 32.8381C49.6408 31.9163 50.6243 31.0552 51.6617 30.2708C52.7006 29.5233 53.7989 28.866 54.9538 28.3108C56.1185 27.8122 57.3436 27.4279 58.6336 27.1653" stroke="url(#paint4_linear_30_2582)" stroke-width="2" stroke-linecap="round" stroke-dasharray="8 5"/>
<path opacity="0.81" d="M62.3774 28.3142C63.6415 28.213 64.931 28.2346 66.2417 28.3695C67.5595 28.5598 68.8993 28.8555 70.2584 29.2456C71.6227 29.672 73.0065 30.1799 74.4022 30.7572C75.8027 31.3501 77.2168 31.9978 78.6338 32.6901C80.0553 33.3788 81.4786 34.101 82.8965 34.8494C84.3123 35.5772 85.7155 36.3239 87.0993 37.0838C88.4722 37.8159 89.8157 38.559 91.1187 39.3143C92.3977 40.0383 93.6253 40.7772 94.7915 41.5287C95.9147 42.2524 96.963 42.9967 97.9238 43.7642C98.8261 44.5089 99.6303 45.2843 100.322 46.092C100.949 46.8855 101.455 47.7185 101.838 48.5913C102.15 49.4568 102.339 50.3686 102.405 51.3282C102.412 52.2842 102.307 53.29 102.097 54.3467C101.855 55.3985 101.532 56.5019 101.137 57.6559C100.755 58.8039 100.332 60.0025 99.8857 61.2453C99.4961 62.4823 99.1143 63.765 98.7562 65.0903C98.4933 66.4059 98.2815 67.734 98.1217 69.0681C98.0734 70.394 98.0755 71.726 98.1263 73.0643C98.2743 74.3944 98.4564 75.729 98.6581 77.0664C98.9296 78.3968 99.1999 79.7305 99.4521 81.0596C99.7421 82.3816 99.9896 83.6967 100.183 85.0013C100.38 86.2927 100.503 87.5675 100.541 88.8124C100.558 90.037 100.478 91.2233 100.298 92.3587C100.08 93.4628 99.7551 94.5037 99.3267 95.4686C98.8549 96.3865 98.2794 97.2154 97.6057 97.9467C96.8906 98.6181 96.0827 99.1817 95.1893 99.6304C94.2624 100.018 93.258 100.29 92.1855 100.446C91.0872 100.553 89.9317 100.554 88.726 100.457C87.5053 100.339 86.2449 100.146 84.9525 99.8901C83.6559 99.6558 82.3354 99.3919 80.9975 99.1153C79.6666 98.907 78.3248 98.719 76.9784 98.5637C75.6435 98.5211 74.3078 98.5348 72.9738 98.6125C71.6548 98.8219 70.3677 99.0923 69.1164 99.4152C67.8746 99.8479 66.6631 100.31 65.4801 100.783C64.301 101.326 63.1453 101.848 62.0115 102.333C60.8751 102.838 59.754 103.273 58.6468 103.625C57.5311 103.955 56.4252 104.176 55.3287 104.284C54.2174 104.343 53.1125 104.274 52.0158 104.08C50.9015 103.824 49.7937 103.442 48.6982 102.943C47.5833 102.381 46.4799 101.711 45.3904 100.941C44.2894 100.12 43.2053 99.2126 42.1457 98.2303C41.0776 97.212 40.0384 96.1314 39.0343 95.0006C38.0312 93.8473 37.0688 92.653 36.1548 91.4296C35.2508 90.194 34.4008 88.9369 33.6116 87.6623C32.8414 86.3842 32.1373 85.0946 31.5081 83.799C30.9061 82.5022 30.3809 81.2025 29.939 79.9023C29.5291 78.6004 29.2061 77.301 28.9733 76.0052C28.7709 74.708 28.662 73.4141 28.6454 72.1285C28.6556 70.8385 28.7579 69.5858 28.9411 68.3713C29.1448 67.1532 29.4244 65.9708 29.7721 64.8279C30.129 63.6793 30.5474 62.5678 31.0226 61.4939C31.4939 60.4139 32.0152 59.3674 32.5787 58.3567C33.1316 57.3375 33.7231 56.3496 34.3483 55.3937C34.9544 54.4236 35.592 53.4793 36.2562 52.5595C36.8978 51.6227 37.5652 50.7026 38.257 49.8025C38.9222 48.8762 39.6142 47.9616 40.3297 47.0575C41.0213 46.1237 41.7392 45.1952 42.4817 44.2723C43.2034 43.3178 43.9545 42.3683 44.7333 41.4241C45.4948 40.4511 46.2892 39.4859 47.1172 38.5351C47.9318 37.5631 48.7839 36.613 49.6726 35.6913C50.5545 34.7654 51.4758 33.8805 52.4408 33.0458C53.3992 32.2261 54.4045 31.4723 55.456 30.7941C56.5082 30.1543 57.608 29.6044 58.7582 29.1553C59.9108 28.7621 61.1164 28.4792 62.3758 28.3143" stroke="url(#paint5_linear_30_2582)" stroke-width="2" stroke-linecap="round" stroke-dasharray="10 11"/>
<path opacity="0.77" d="M65.9232 29.7815C67.1434 29.768 68.38 29.8722 69.628 30.0862C70.8791 30.3513 72.1429 30.7167 73.4174 31.1728C74.6932 31.6672 75.9793 32.2396 77.2708 32.8821C78.566 33.5421 79.8645 34.2579 81.1596 35.0201C82.4564 35.7823 83.7494 36.5797 85.029 37.4063C86.3049 38.2171 87.5638 39.0491 88.7977 39.8963C90.0164 40.72 91.2036 41.5558 92.3448 42.4027C93.4627 43.2199 94.5266 44.0483 95.5253 44.8868C96.4849 45.6976 97.3698 46.5236 98.1672 47.3618C98.9144 48.1776 99.5648 49.014 100.109 49.8696C100.782 51.1398 101.472 53.7978 101.488 55.1985C101.415 56.1354 101.239 57.1074 100.965 58.1191C100.669 59.1235 100.299 60.1702 99.8611 61.2557C99.439 62.3375 98.9766 63.4605 98.4884 64.6242C98.0527 65.7847 97.62 66.9882 97.1997 68.2329C96.8672 69.4749 96.5734 70.7285 96.3231 71.992C96.1717 73.2524 96.0621 74.5211 95.9926 75.795C96.0109 77.0677 96.0565 78.3428 96.1212 79.6174C96.2513 80.8883 96.3798 82.1561 96.4951 83.4131C96.6485 84.6641 96.768 85.9002 96.8436 87.1137C96.9269 88.3142 96.95 89.4846 96.9017 90.6156C96.8415 91.723 96.6999 92.7818 96.4734 93.7809C96.047 95.192 94.6962 97.5565 93.7784 98.4698C92.7305 99.2017 90.2114 100.048 88.7691 100.164C87.769 100.166 86.7149 100.074 85.615 99.8933C84.5035 99.7006 83.3548 99.4403 82.1725 99.1267C80.9846 98.8389 79.7718 98.5231 78.538 98.1968C77.3046 97.9375 76.0526 97.6932 74.7902 97.4779C73.5309 97.3633 72.2603 97.2969 70.9851 97.2865C69.7118 97.3927 68.4626 97.5525 67.2371 97.7595C66.0148 98.0655 64.8156 98.3979 63.6407 98.7424C62.463 99.1524 61.3073 99.5474 60.173 99.913C59.0346 100.301 57.9152 100.631 56.8128 100.89C55.7036 101.137 54.6107 101.29 53.534 101.346C52.4481 101.36 51.3779 101.265 50.3219 101.058C49.2563 100.798 48.2064 100.426 47.1755 99.9449C46.1333 99.4081 45.1104 98.7702 44.1101 98.0388C43.102 97.2598 42.1185 96.3969 41.1647 95.4612C40.2099 94.4905 39.2866 93.4564 38.4017 92.37C37.5208 91.2612 36.6834 90.1094 35.8946 88.9258C35.1165 87.7291 34.3952 86.5083 33.7324 85.2697C33.0887 84.0258 32.5117 82.7702 32.0049 81.5092C31.5235 80.2459 31.1171 78.9803 30.7908 77.7186C30.4947 76.4543 30.2803 75.1956 30.1524 73.9437C30.0548 72.6926 30.0437 71.4484 30.1209 70.2158C30.2252 68.9824 30.4138 67.788 30.677 66.6327C30.9594 65.4754 31.3117 64.3574 31.7291 63.2789C32.1543 62.1954 32.6382 61.1485 33.1727 60.1383C33.7054 59.1218 34.2855 58.139 34.905 57.1885C35.5146 56.2304 36.1602 55.2999 36.8371 54.3988C37.4975 53.4822 38.1875 52.5903 38.9021 51.7216C39.5985 50.8326 40.3178 49.9606 41.06 49.1054C41.7807 48.2253 42.5241 47.3573 43.2901 46.4982C44.0345 45.6126 44.8032 44.7342 45.5961 43.8647C46.3689 42.9655 47.1691 42.0749 47.9967 41.1932C48.8077 40.2879 49.6478 39.3962 50.5188 38.5227C51.3766 37.6336 52.2672 36.7707 53.1906 35.9403C54.1062 35.1101 55.0582 34.3236 56.0438 33.5919C57.0252 32.878 58.0453 32.2299 59.103 31.659C60.1586 31.1249 61.2537 30.6791 62.3886 30.3342C63.5235 30.039 64.7016 29.8526 65.9216 29.7815" stroke="url(#paint6_linear_30_2582)" stroke-width="2" stroke-linecap="round" stroke-dasharray="3 9"/>
<path opacity="0.73" d="M69.2183 31.5426C70.3886 31.6132 71.5641 31.7926 72.7419 32.0745C73.9193 32.4058 75.0993 32.8332 76.2807 33.3469C77.4607 33.8957 78.644 34.5213 79.8214 35.2154C81.0012 35.9273 82.1756 36.6964 83.3419 37.5099C84.5063 38.3282 85.6581 39.1827 86.7912 40.0669C87.9198 40.9413 89.0237 41.8354 90.0981 42.7476C91.1574 43.6384 92.181 44.5422 93.1547 45.4536C94.107 46.3417 95.0032 47.2356 95.8335 48.1364C96.6297 49.012 97.3505 49.8941 97.9879 50.7841C98.5815 51.6499 99.0821 52.5249 99.4846 53.4119C99.9631 54.7207 100.327 57.3913 100.211 58.7659C100.065 59.679 99.8243 60.6172 99.4966 61.5822C99.1548 62.5403 98.7431 63.5275 98.271 64.5475C97.8134 65.5633 97.3177 66.6128 96.7967 67.698C96.322 68.7834 95.8442 69.9055 95.3713 71.0661C94.9766 72.2282 94.6119 73.4011 94.282 74.5818C94.0398 75.7676 93.8293 76.9594 93.6523 78.1542C93.5551 79.3522 93.4802 80.551 93.4199 81.744C93.4203 82.9379 93.4211 84.1221 93.413 85.2901C93.4434 86.4531 93.4459 87.5943 93.4129 88.7037C93.3964 89.801 93.3286 90.8595 93.2037 91.871C92.9779 93.3259 92.1544 95.8661 91.5452 96.9175C90.8254 97.8173 88.992 99.0692 87.8902 99.4073C86.6975 99.5788 84.0169 99.3905 82.5516 99.0637C81.5499 98.8145 80.5122 98.5062 79.4412 98.1504C78.3643 97.8214 77.2581 97.4689 76.1283 97.1043C74.9929 96.8002 73.8362 96.5096 72.661 96.2423C71.4822 96.0659 70.2859 95.9288 69.075 95.8358C67.8599 95.8482 66.6589 95.9058 65.4741 96.0025C64.2855 96.1901 63.1137 96.4008 61.9605 96.6233C60.8018 96.9064 59.6627 97.1775 58.5422 97.4238C57.4174 97.697 56.3105 97.9214 55.2251 98.0876C54.1336 98.2471 53.0628 98.3291 52.0113 98.3256C50.9562 98.2932 49.9226 98.1641 48.9103 97.9384C47.8935 97.6678 46.8982 97.2974 45.9291 96.8305C44.9555 96.3171 44.008 95.7088 43.0896 95.0138C42.1695 94.2788 41.2799 93.4618 40.4234 92.5775C39.5714 91.6582 38.7554 90.678 37.9814 89.6467C37.2147 88.5934 36.4928 87.4971 35.8218 86.3676C35.1641 85.2243 34.5618 84.0545 34.0193 82.8694C33.4947 81.6755 33.0361 80.4698 32.6448 79.2588C32.2775 78.0471 31.9839 76.832 31.7652 75.6215C31.5753 74.4105 31.4634 73.2058 31.4328 72.0092C31.4307 70.8153 31.5099 69.631 31.6732 68.4596C31.8619 67.2909 32.1259 66.1603 32.4617 65.071C32.8152 63.9807 33.2327 62.9282 33.7093 61.9147C34.1957 60.8985 34.7349 59.9179 35.3207 58.9727C35.9068 58.0212 36.5363 57.1017 37.2029 56.2141C37.8636 55.3151 38.5567 54.4445 39.2776 53.599C39.9878 52.7403 40.7243 51.9034 41.484 51.0867C42.2285 50.2501 42.9947 49.4304 43.7826 48.6259C44.5524 47.7968 45.344 46.9812 46.1559 46.1761C46.9497 45.3463 47.7671 44.5255 48.6032 43.7149C49.426 42.8799 50.2723 42.0553 51.1404 41.2445C51.9965 40.4156 52.8775 39.602 53.7847 38.8119C54.6796 38.0117 55.6037 37.2398 56.555 36.5074C57.4983 35.7746 58.4717 35.091 59.4731 34.4628C60.4675 33.8536 61.4927 33.311 62.5485 32.8449C63.5997 32.4137 64.6809 32.07 65.7935 31.8234C66.9026 31.623 68.0443 31.5278 69.2167 31.5426" stroke="url(#paint7_linear_30_2582)" stroke-width="2" stroke-linecap="round" stroke-dasharray="5 7"/>
<path opacity="0.7" d="M72.2126 33.5681C73.3245 33.7122 74.4315 33.9585 75.5326 34.3022C76.6289 34.6887 77.7199 35.1662 78.8034 35.7264C79.8834 36.3184 80.9551 36.985 82.0167 37.7147C83.0743 38.4649 84.1212 39.2685 85.1502 40.1183C86.1768 40.9743 87.1835 41.865 88.1677 42.7853C89.1429 43.6999 90.09 44.6354 91.0017 45.5863C91.8991 46.5212 92.7567 47.4677 93.5637 48.4215C94.3505 49.3537 95.0791 50.2892 95.7432 51.2271C96.3793 52.1426 96.9413 53.0596 97.4245 53.9775C98.0501 55.3209 98.7954 57.9918 98.9015 59.3258C98.8568 60.6432 98.2652 63.3154 97.7428 64.681C97.3608 65.5915 96.9139 66.5221 96.4131 67.4756C95.9269 68.4275 95.404 69.4059 94.854 70.4118C94.3486 71.421 93.8333 72.4613 93.3177 73.5337C92.8705 74.612 92.4448 75.6992 92.0475 76.7911C91.7249 77.8913 91.4292 78.9944 91.159 80.0988C90.9589 81.2093 90.7785 82.3156 90.6102 83.4152C90.4996 84.5148 90.3887 85.6031 90.2708 86.6681C90.1934 87.7296 90.0932 88.7644 89.9682 89.7628C89.7892 91.2195 89.2196 93.8523 88.804 94.9936C88.3198 96.0149 87.0281 97.5958 86.2215 98.133C85.334 98.5151 83.2657 98.752 82.0999 98.6164C80.8727 98.3664 78.2057 97.5103 76.7778 96.9553C75.8085 96.5973 74.8077 96.2182 73.7811 95.8265C72.7449 95.4917 71.6839 95.1637 70.5985 94.8523C69.5042 94.6218 68.3856 94.4224 67.2488 94.2563C66.1 94.1837 64.9569 94.1471 63.826 94.1456C62.6847 94.2232 61.5542 94.3197 60.4369 94.4273C59.3134 94.5905 58.2037 94.7456 57.1123 94.8801C56.0148 95.0414 54.9361 95.1629 53.8789 95.2354C52.8168 95.3089 51.7781 95.316 50.7618 95.2516C49.7446 95.1663 48.7526 94.9986 47.7874 94.7487C46.8212 94.4633 45.8826 94.0895 44.974 93.6322C44.0667 93.1348 43.1913 92.5527 42.3501 91.894C41.5113 91.1986 40.7079 90.43 39.9439 89.5966C39.1863 88.7335 38.4688 87.8137 37.7971 86.8428C37.1356 85.8522 36.5221 84.8202 35.9588 83.7553C35.4116 82.676 34.9201 81.5724 34.4853 80.4494C34.0721 79.3208 33.7213 78.1798 33.437 77.0332C33.1754 75.8844 32.9831 74.7337 32.8644 73.5862C32.771 72.4416 32.7527 71.302 32.8087 70.1723C32.8933 69.0458 33.0539 67.9292 33.2932 66.8279C33.5578 65.7293 33.8906 64.6688 34.2879 63.6492C34.7028 62.6299 35.1763 61.6477 35.7052 60.7021C36.2422 59.7558 36.8286 58.8423 37.4579 57.9624C38.0908 57.0782 38.7622 56.2239 39.4675 55.3975C40.1705 54.5627 40.9029 53.7522 41.6631 52.9671C42.4137 52.1666 43.1907 51.3883 43.9884 50.6267C44.775 49.8494 45.5826 49.0858 46.4092 48.3386C47.2239 47.5693 48.0563 46.8132 48.9083 46.0689C49.7452 45.302 50.6034 44.5455 51.4792 43.8038C52.3431 43.0399 53.2279 42.2896 54.1314 41.559C55.0258 40.8098 55.9401 40.0836 56.8755 39.3839C57.8023 38.6752 58.751 38.001 59.7211 37.3661C60.684 36.737 61.6691 36.1552 62.6767 35.6305C63.6757 35.1258 64.6996 34.6866 65.744 34.3234C66.7815 33.9933 67.8402 33.7474 68.9224 33.5942C69.9965 33.485 71.0936 33.4731 72.211 33.568" stroke="url(#paint8_linear_30_2582)" stroke-width="2" stroke-linecap="round" stroke-dasharray="9 2"/>
<path opacity="0.66" d="M74.8613 35.8148C75.9072 36.0255 76.9409 36.3297 77.9597 36.7238C78.9714 37.1571 79.9679 37.6737 80.9487 38.267C81.9225 38.8898 82.8818 39.583 83.8223 40.3345C84.7575 41.1061 85.6736 41.9294 86.5656 42.7954C87.4527 43.6702 88.3144 44.5778 89.1465 45.514C89.9694 46.4469 90.7611 47.4 91.5126 48.3686C92.2504 49.3232 92.9458 50.288 93.5899 51.258C94.2146 52.2099 94.7835 53.1646 95.2898 54.1159C95.7704 55.0479 96.1833 55.9772 96.5206 56.9025C96.9421 58.2556 97.3307 60.9159 97.2892 62.2265C97.1188 63.5135 96.3421 66.0841 95.7565 67.378C95.3398 68.2369 94.865 69.1111 94.341 69.9975C93.8329 70.8851 93.2889 71.7921 92.7185 72.7187C92.1859 73.6522 91.6407 74.6093 91.0913 75.59C90.6013 76.5832 90.1273 77.5777 89.6724 78.5741C89.2851 79.5829 88.9175 80.5903 88.5702 81.5934C88.2857 82.6079 88.0157 83.6137 87.7581 84.6056C87.5498 85.6032 87.3446 86.5836 87.1377 87.5376C86.873 88.9502 86.2894 91.5741 85.9406 92.7538C85.5685 93.8481 84.6125 95.6587 84.0182 96.352C82.5908 97.2339 79.966 97.5787 78.9307 97.3635C77.8444 97.0545 75.48 96.1174 74.2096 95.5361C73.3412 95.1631 72.4426 94.7683 71.5174 94.3589C70.5781 94.0005 69.6106 93.645 68.617 93.2994C67.6088 93.0242 66.5754 92.772 65.5151 92.5424C64.4415 92.3949 63.3673 92.2764 62.2996 92.1851C61.2174 92.1642 60.1408 92.1573 59.0755 92.159C57.9992 92.2123 56.936 92.2565 55.8868 92.2855C54.831 92.3425 53.7943 92.3656 52.7776 92.3502C51.7588 92.3377 50.7614 92.2706 49.7908 92.1451C48.8194 92.0065 47.8756 91.7966 46.9624 91.5176C46.0505 91.2129 45.1703 90.8329 44.3249 90.378C43.4831 89.8946 42.6777 89.3366 41.9093 88.7091C41.1495 88.0524 40.4277 87.3295 39.7476 86.5477C39.0784 85.742 38.453 84.8825 37.8733 83.9778C37.3083 83.0547 36.7911 82.0917 36.3268 81.0977C35.8791 80.0922 35.4864 79.061 35.1524 78.0113C34.8383 76.9588 34.5854 75.8914 34.3953 74.8177C34.2294 73.7452 34.1291 72.6684 34.0979 71.5962C34.0905 70.5267 34.1536 69.4619 34.2896 68.4072C34.4492 67.3569 34.6816 66.3166 34.9875 65.2913C35.3154 64.2701 35.7082 63.2851 36.1589 62.3383C36.6252 61.3943 37.1455 60.4846 37.7158 59.6116C38.2964 58.7356 38.9211 57.8936 39.5873 57.082C40.2559 56.2659 40.9617 55.4777 41.6996 54.7182C42.4361 53.9486 43.2008 53.202 43.9922 52.4782C44.7762 51.7417 45.5843 51.0241 46.415 50.3254C47.2357 49.6101 48.076 48.9115 48.9351 48.226C49.7845 47.5225 50.651 46.8319 51.5343 46.1558C52.4067 45.4597 53.2978 44.7769 54.2054 44.11C55.1017 43.4248 56.0159 42.7576 56.9461 42.1094C57.8686 41.4502 58.8077 40.815 59.7627 40.2088C60.7085 39.5992 61.6725 39.0238 62.6515 38.4902C63.6244 37.9635 64.6113 37.4848 65.6151 37.0644C66.6091 36.6617 67.6187 36.3252 68.6426 36.0611C69.658 35.8262 70.6859 35.6733 71.7272 35.6071C72.7595 35.5816 73.8039 35.6491 74.8597 35.8145" stroke="url(#paint9_linear_30_2582)" stroke-width="2" stroke-linecap="round" stroke-dasharray="8 1"/>
<path opacity="0.62" d="M77.1272 38.2331C78.1023 38.4999 79.0567 38.8538 79.9889 39.2877C80.9105 39.7567 81.811 40.3012 82.6871 40.9153C84.4163 42.2264 86.0537 43.7729 87.5761 45.491C89.0697 47.2446 90.4378 49.1143 91.6468 51.0454C92.8056 52.9405 93.7737 54.8592 94.511 56.7648C95.1667 58.5967 95.5557 60.4079 95.6514 62.1801C95.6487 63.8792 95.3484 65.5563 94.7511 67.2083C94.1034 68.8192 93.2135 70.4422 92.1178 72.0833C91.5932 72.9065 91.0344 73.7407 90.4492 74.5879C89.8981 75.4439 89.3309 76.3171 88.7579 77.207C88.2327 78.1092 87.7208 79.0115 87.2252 79.9081C86.7852 80.819 86.3611 81.7257 85.9542 82.6236C85.2977 84.4549 84.6803 86.2303 84.0801 87.9063C83.6202 89.582 83.1086 91.1059 82.5216 92.4225C81.9845 93.6794 81.3229 94.6768 80.5283 95.3763C79.7286 95.9739 78.7787 96.251 77.6918 96.2011C76.5803 96.074 75.3295 95.6605 73.9573 94.9949C72.5457 94.3604 71.0095 93.5753 69.3621 92.6972C68.5178 92.3255 67.6429 91.9508 66.7405 91.5806C65.8195 91.27 64.8717 90.9738 63.8951 90.6934C62.901 90.4811 61.9045 90.2912 60.9059 90.1221C59.8938 90.0123 58.8851 89.9149 57.8818 89.8221C55.841 89.7697 53.8443 89.6609 51.9242 89.4466C49.9903 89.2666 48.153 88.8839 46.4403 88.2793C44.7435 87.6062 43.1847 86.6718 41.7846 85.4979C40.4216 84.2312 39.2292 82.7429 38.2304 81.0785C37.2874 79.3575 36.549 77.5011 36.038 75.5679C35.6049 73.62 35.4135 71.6303 35.4799 69.6442C35.5489 68.6563 35.6822 67.6749 35.8844 66.7013C36.1097 65.7337 36.4016 64.7765 36.7647 63.8311C37.146 62.8919 37.5859 61.9877 38.0795 61.1186C38.5889 60.2519 39.1472 59.4192 39.7515 58.6198C40.9871 57.0179 42.3827 55.5314 43.9028 54.151C45.4234 52.7427 47.0508 51.4129 48.7587 50.1615C50.4425 48.8561 52.2046 47.6054 54.0232 46.4171C55.81 45.1662 57.6616 43.978 59.5591 42.8742C61.4277 41.735 63.351 40.7104 65.3132 39.8425C67.2427 39.0057 69.2143 38.3776 71.2078 38.0107C72.1905 37.869 73.1805 37.8017 74.1723 37.8173C75.1539 37.8665 76.1391 38.0041 77.1257 38.2327" stroke="url(#paint10_linear_30_2582)" stroke-width="2" stroke-linecap="round" stroke-dasharray="9 4"/>
<path opacity="0.58" d="M78.9845 40.7661C80.7721 41.4328 82.4486 42.3975 84.0018 43.6156C85.5191 44.9363 86.9173 46.468 88.1821 48.1523C89.4126 49.8738 90.5022 51.7 91.4237 53.5761C92.2991 55.4284 92.9858 57.2969 93.4522 59.1442C93.8515 60.9304 94.0074 62.6842 93.9032 64.385C93.7238 66.0236 93.2843 67.6244 92.5908 69.1791C91.8645 70.7011 90.9261 72.2129 89.8105 73.7162C88.7554 75.2346 87.5994 76.7833 86.3812 78.3668C85.3327 80.0069 84.3242 81.6182 83.3741 83.1851C82.6069 84.8045 81.8751 86.3532 81.168 87.7923C80.5886 89.2421 79.981 90.5343 79.333 91.6245C78.4032 93.0702 76.1095 94.5173 74.7061 94.455C73.7184 94.262 72.6186 93.8145 71.4147 93.1388C70.1725 92.5024 68.8147 91.7231 67.3503 90.8493C65.8208 90.1356 64.1716 89.4124 62.4118 88.7077C60.5737 88.2379 58.7164 87.8156 56.8707 87.4241C54.973 87.1937 53.1122 86.9132 51.322 86.547C49.5193 86.2236 47.8119 85.7351 46.2284 85.0674C44.6645 84.3557 43.2415 83.4285 41.9832 82.3002C40.7673 81.1053 39.7277 79.7201 38.883 78.1843C38.0989 76.6032 37.5188 74.9049 37.1625 73.1364C36.8798 71.3588 36.8315 69.5449 37.0306 67.731C37.3121 65.9378 37.8445 64.1644 38.6364 62.4404C39.5031 60.7397 40.5769 59.1653 41.8213 57.7151C43.1046 56.2694 44.5363 54.9288 46.0832 53.6872C47.6371 52.4244 49.2936 51.2378 51.0233 50.1245C52.7388 48.9677 54.5275 47.869 56.3653 46.8355C58.1813 45.756 60.0488 44.7442 61.9522 43.8217C63.8303 42.8791 65.7447 42.0546 67.6784 41.3847C69.5787 40.7491 71.4962 40.3144 73.4106 40.1263C75.2831 40.0386 77.1464 40.2407 78.9815 40.765" stroke="url(#paint11_linear_30_2582)" stroke-width="2" stroke-linecap="round" stroke-dasharray="4 7"/>
<path opacity="0.54" d="M80.4165 43.3578C82.045 44.0956 83.5388 45.0922 84.8901 46.3081C86.1984 47.6151 87.3703 49.1058 88.3932 50.7268C89.3794 52.3861 90.2131 54.1344 90.8758 55.9243C91.495 57.6979 91.9294 59.4797 92.1593 61.2339C92.3348 62.9397 92.2913 64.6068 92.0164 66.2109C91.6893 67.7657 91.1359 69.2701 90.3649 70.7156C89.5764 72.1365 88.6062 73.5289 87.4809 74.8952C86.4156 76.2794 85.2535 77.6719 84.0317 79.0708C82.9495 80.5292 81.8984 81.9417 80.8981 83.294C80.0519 84.6998 79.2394 86.0244 78.4588 87.2343C77.7924 88.4603 77.1187 89.533 76.4283 90.4121C75.459 91.5768 73.27 92.6066 72.0052 92.4306C71.1257 92.1963 70.1568 91.7314 69.1018 91.065C68.0084 90.4414 66.8128 89.6805 65.5172 88.8229C64.1556 88.104 62.6772 87.354 61.0937 86.595C59.4299 86.0344 57.7411 85.4963 56.0593 84.9749C54.3224 84.5949 52.6187 84.1681 50.9801 83.6716C49.325 83.2234 47.7634 82.6412 46.3248 81.9163C44.904 81.1693 43.6246 80.2476 42.5111 79.1629C41.4382 78.0346 40.543 76.7482 39.8414 75.3363C39.1987 73.8951 38.7584 72.3528 38.5366 70.7506C38.3827 69.147 38.4534 67.5103 38.7598 65.876C39.1401 64.2637 39.7581 62.6702 40.6204 61.1208C41.5477 59.5983 42.6649 58.189 43.9385 56.8944C45.2485 55.6081 46.6965 54.4185 48.2519 53.3201C49.8163 52.2082 51.4784 51.1694 53.2093 50.2024C54.9329 49.203 56.7224 48.2654 58.5548 47.3956C60.3703 46.4913 62.2292 45.6619 64.1104 44.9247C65.9694 44.1783 67.8484 43.5508 69.7281 43.0722C71.5746 42.6317 73.4174 42.3798 75.2312 42.3527C77.0021 42.4167 78.7372 42.7424 80.4165 43.3578Z" stroke="url(#paint12_linear_30_2582)" stroke-width="2" stroke-linecap="round" stroke-dasharray="1 4"/>
<path opacity="0.51" d="M81.4239 45.9484C82.8871 46.7357 84.1991 47.7437 85.3549 48.9362C86.4656 50.2079 87.4266 51.6333 88.2291 53.1689C88.993 54.7387 89.5985 56.3829 90.034 58.0565C90.431 59.7216 90.6487 61.3883 90.6792 63.0223C90.6648 64.6213 90.4546 66.1762 90.0444 67.6634C89.5964 69.112 88.9547 70.5051 88.1295 71.8298C87.2992 73.1395 86.3126 74.4086 85.1945 75.6336C84.1292 76.8813 82.9775 78.1163 81.7687 79.337C80.6742 80.6148 79.6068 81.8311 78.5857 82.976C77.689 84.1758 76.8293 85.2834 76.0059 86.2753C75.2812 87.2914 74.5648 88.1582 73.8526 88.8451C72.8628 89.7557 70.7737 90.4336 69.628 90.176C68.8394 89.9145 67.9828 89.4496 67.056 88.8033C66.0928 88.2013 65.0403 87.4708 63.9006 86.6397C62.6945 85.9272 61.3827 85.1655 59.9759 84.3725C58.4879 83.7424 56.9755 83.118 55.4689 82.4964C53.9059 81.9949 52.3743 81.4483 50.9027 80.846C49.4132 80.2937 48.013 79.6342 46.729 78.8632C45.4615 78.0879 44.3324 77.1747 43.3618 76.1335C42.4318 75.068 41.6739 73.876 41.1065 72.5845C40.592 71.2766 40.2739 69.8864 40.167 68.4481C40.1216 67.0156 40.2912 65.5564 40.6814 64.1021C41.138 62.672 41.8168 61.2582 42.7241 59.887C43.69 58.545 44.8288 57.3037 46.1106 56.1657C47.4245 55.042 48.8698 54.0054 50.4109 53.0558C51.9663 52.099 53.6103 51.2114 55.3179 50.3967C57.0227 49.5591 58.7867 48.785 60.5866 48.0822C62.3742 47.3574 64.1948 46.7097 66.0255 46.1562C67.8354 45.6013 69.6519 45.1621 71.4528 44.865C73.2201 44.6065 74.964 44.5202 76.6595 44.6381C78.3122 44.8346 79.9073 45.2647 81.4239 45.9484Z" stroke="url(#paint13_linear_30_2582)" stroke-width="2" stroke-linecap="round" stroke-dasharray="8 1"/>
<path opacity="0.47" d="M82.0145 48.4798C83.3105 49.2969 84.447 50.2962 85.4191 51.4451C86.3457 52.6617 87.1132 54.0032 87.7201 55.4315C88.2896 56.8916 88.6983 58.4107 88.9424 59.9476C89.1488 61.4825 89.1894 63.0124 89.0586 64.5059C88.8923 65.9748 88.5532 67.3972 88.0404 68.7524C87.5023 70.0814 86.8003 71.3489 85.9436 72.5455C85.0881 73.7335 84.1023 74.8724 83.0071 75.9578C81.9553 77.067 80.8288 78.1488 79.6503 79.1962C78.5653 80.2988 77.5034 81.3278 76.4849 82.2768C75.5688 83.2788 74.6873 84.1844 73.8474 84.9755C72.7247 86.1356 70.6449 87.6763 69.6394 87.9783C68.6521 88.0612 66.5118 87.2387 65.3137 86.3941C64.4617 85.8206 63.5374 85.1246 62.5385 84.3289C61.4761 83.6312 60.3235 82.8727 59.0884 82.0656C57.7748 81.3882 56.4439 80.7025 55.1178 80.0086C53.7383 79.4147 52.3866 78.7798 51.0941 78.0982C49.7816 77.466 48.5515 76.7508 47.4334 75.9497C46.3269 75.1572 45.3502 74.2579 44.527 73.2618C43.7367 72.2574 43.1127 71.1564 42.6687 69.98C42.2723 68.7983 42.0628 67.5545 42.0532 66.2766C42.0966 65.0097 42.3425 63.7232 42.7961 62.4462C43.3059 61.1932 44.0236 59.959 44.9545 58.7655C45.9344 57.599 47.0747 56.5253 48.3421 55.5472C49.6414 54.5841 51.0583 53.7016 52.5638 52.9011C54.0845 52.1003 55.6878 51.3668 57.3455 50.7044C59.0048 50.0299 60.7169 49.42 62.4555 48.8813C64.1847 48.3335 65.9371 47.8624 67.6897 47.4822C69.4223 47.1107 71.1503 46.8476 72.846 46.7177C74.5113 46.6235 76.1377 46.6862 77.6994 46.9277C79.2191 47.2372 80.666 47.7485 82.0145 48.4798Z" stroke="url(#paint14_linear_30_2582)" stroke-width="2" stroke-linecap="round" stroke-dasharray="8 3"/>
<path opacity="0.43" d="M82.2104 50.8977C83.3414 51.7245 84.3085 52.6962 85.1098 53.7844C85.8676 54.93 86.4654 56.1727 86.9039 57.4802C87.3053 58.8163 87.5492 60.1951 87.637 61.5807C87.6943 62.9685 87.5948 64.3472 87.3415 65.6875C87.06 67.0124 86.6264 68.2905 86.045 69.5016C85.4471 70.6974 84.7106 71.8325 83.8468 72.8934C82.9879 73.9557 82.02 74.9622 80.9605 75.9075C79.9391 76.8791 78.855 77.8093 77.7234 78.6932C76.6654 79.6279 75.6313 80.4801 74.638 81.2479C73.7249 82.0653 72.8479 82.7853 72.0152 83.3962C70.8829 84.2952 68.8228 85.4057 67.8573 85.5622C66.9212 85.5469 64.9682 84.6827 63.9036 83.8805C63.1486 83.3382 62.3347 82.6817 61.4652 81.9286C60.5351 81.252 59.5329 80.5084 58.4623 79.7038C57.3212 79.0039 56.1691 78.2809 55.0269 77.5434C53.8311 76.8892 52.667 76.1948 51.5602 75.4623C50.4287 74.7768 49.377 74.0261 48.4287 73.2128C47.4868 72.4156 46.6658 71.5388 45.9875 70.5956C45.3359 69.6533 44.839 68.6412 44.5104 67.5764C44.2216 66.5158 44.1072 65.4106 44.1786 64.2862C44.295 63.1753 44.5981 62.0555 45.0963 60.948C45.6384 59.867 46.3737 58.8067 47.3068 57.7859C48.2794 56.7923 49.3972 55.8834 50.6319 55.0609C51.8917 54.2557 53.2596 53.5271 54.7078 52.8732C56.1696 52.2249 57.7048 51.6447 59.289 51.1312C60.8764 50.616 62.5065 50.1653 64.1577 49.7853C65.7991 49.4025 67.4562 49.0984 69.103 48.8823C70.7333 48.676 72.3459 48.5741 73.9159 48.5902C75.4566 48.6403 76.949 48.8279 78.3633 49.1711C79.7385 49.5708 81.0295 50.1432 82.2104 50.8977Z" stroke="url(#paint15_linear_30_2582)" stroke-width="2" stroke-linecap="round" stroke-dasharray="8 3"/>
<path opacity="0.39" d="M82.0418 53.1594C83.0123 53.9761 83.8211 54.9028 84.4671 55.9181C85.0738 56.9775 85.5238 58.1101 85.822 59.2869C86.0843 60.4882 86.1987 61.7184 86.1675 62.9467C86.1073 64.1804 85.9067 65.398 85.5689 66.5775C85.2087 67.7493 84.7163 68.8767 84.0997 69.9396C83.4708 70.9948 82.7252 71.9914 81.8763 72.9176C81.0325 73.8479 80.1005 74.7221 79.093 75.5298C78.1169 76.3646 77.0855 77.151 76.0171 77.8814C75.0058 78.6553 74.0169 79.345 73.0687 79.9506C71.7552 80.8776 69.4081 82.2765 68.3636 82.7008C67.4015 83.0194 65.5917 82.9586 64.7057 82.5734C63.7977 82.0724 61.819 80.4967 60.7083 79.482C59.9001 78.8359 59.0372 78.1174 58.1259 77.3316C57.1485 76.626 56.1714 75.8918 55.2079 75.138C54.1974 74.4508 53.2193 73.7281 52.2955 72.9733C51.3481 72.2608 50.4747 71.4992 49.6951 70.692C48.9179 69.9071 48.2538 69.0654 47.7165 68.18C47.1995 67.3026 46.8238 66.3787 46.6025 65.4228C46.4109 64.4785 46.3809 63.5058 46.5182 62.5259C46.6914 61.5624 47.0375 60.6002 47.5594 59.6558C48.117 58.7358 48.8512 57.8405 49.7636 56.9855C50.7108 56.1562 51.7859 55.4047 52.9643 54.7336C54.1652 54.0805 55.4626 53.4985 56.8306 52.9893C58.2086 52.488 59.6529 52.0521 61.1399 51.683C62.6272 51.3161 64.1523 51.0143 65.6875 50.7818C67.2162 50.5524 68.7522 50.3982 70.269 50.3268C71.7713 50.2685 73.2467 50.3051 74.6733 50.4438C76.0717 50.6151 77.4141 50.9052 78.6731 51.325C79.8943 51.7922 81.0245 52.4013 82.0418 53.1594Z" stroke="url(#paint16_linear_30_2582)" stroke-width="2" stroke-linecap="round" stroke-dasharray="7 3"/>
<path opacity="0.35" d="M81.5506 55.2276C82.3668 56.015 83.028 56.8832 83.538 57.8119C84.011 58.7759 84.3369 59.7911 84.5204 60.8335C84.6731 61.8953 84.6874 62.9728 84.5725 64.042C84.4307 65.1169 84.1638 66.1741 83.7757 67.1934C83.3716 68.2088 82.8516 69.1825 82.2287 70.096C81.5977 71.0087 80.8697 71.8666 80.0553 72.6579C79.2479 73.4557 78.3672 74.1988 77.4273 74.8765C76.5109 75.5781 75.5484 76.2285 74.5551 76.8157C73.6053 77.443 72.678 77.9869 71.7881 78.4478C70.5396 79.1516 68.2992 80.1442 67.3005 80.4028C65.5175 80.466 63.0098 79.4612 62.1594 78.7509C61.2492 77.9854 59.2252 76.0886 58.096 74.9952C57.2758 74.304 56.4633 73.5809 55.6726 72.8366C54.8388 72.1437 54.0409 71.4188 53.2964 70.6692C52.5272 69.9557 51.8289 69.2053 51.2154 68.4267C50.3392 67.2733 49.1622 64.8347 48.9053 63.5681C48.8238 62.3114 49.439 59.8115 50.1533 58.6129C50.7109 57.8433 51.4257 57.1035 52.3003 56.4047C53.2008 55.7297 54.2149 55.127 55.3191 54.5986C56.4398 54.0876 57.6457 53.6443 58.9109 53.2687C60.1867 52.9028 61.5182 52.6014 62.8828 52.3653C64.2476 52.1337 65.6422 51.9665 67.0417 51.8646C68.4335 51.7709 69.8248 51.7462 71.1931 51.7958C72.5463 51.8619 73.8689 52.0106 75.1364 52.2497C76.38 52.5146 77.5622 52.8792 78.6583 53.3513C79.7209 53.8597 80.6932 54.4848 81.5506 55.2276Z" stroke="url(#paint17_linear_30_2582)" stroke-width="2" stroke-linecap="round"/>
<path opacity="0.32" d="M80.7796 57.0735C82.0874 58.5904 82.8275 60.3151 83.0493 62.1089C83.1617 63.9706 82.7884 65.8313 81.9934 67.5516C81.145 69.2806 79.9174 70.849 78.3981 72.1612C76.8991 73.5137 75.1812 74.6686 73.3412 75.5611C71.6229 76.5805 70.0011 77.2807 68.547 77.663C67.2082 78.1537 65.9891 78.273 64.9057 78.01C63.8476 77.8088 62.8296 77.2123 61.8408 76.2438C60.7518 75.3785 59.5909 74.1993 58.3828 72.7486C56.9887 71.4709 55.6823 70.058 54.5492 68.5892C53.3314 67.2355 52.3971 65.7704 51.8402 64.2659C51.3119 62.8221 51.2392 61.331 51.6791 59.8858C52.2028 58.5109 53.2608 57.2096 54.8764 56.0765C56.5708 55.0293 58.6434 54.2488 60.9263 53.7288C63.2373 53.2526 65.7218 53.0165 68.2125 53.0246C70.6784 53.0693 73.1058 53.3783 75.3258 53.977C77.4584 54.6624 79.3322 55.6902 80.7796 57.0735Z" stroke="url(#paint18_linear_30_2582)" stroke-width="2" stroke-linecap="round" stroke-dasharray="1 6"/>
<path opacity="0.28" d="M79.7804 58.6815C80.8242 60.0681 81.3661 61.5822 81.4544 63.1142C81.4535 64.6984 81.0286 66.2558 80.2461 67.6783C79.4212 69.117 78.282 70.4083 76.9056 71.4747C75.5446 72.5801 74.0036 73.5006 72.3663 74.1719C70.8138 74.947 69.3477 75.429 68.0309 75.6344C66.7926 75.9282 65.6649 75.9132 64.6695 75.5881C63.6849 75.3242 62.7566 74.738 61.886 73.8512C60.9313 73.0434 59.9552 71.9643 58.9875 70.6433C57.8703 69.4445 56.8671 68.1278 56.0368 66.773C55.1306 65.5069 54.4766 64.171 54.1471 62.836C53.8296 61.5613 53.8985 60.2824 54.3974 59.0832C54.9537 57.9442 55.9633 56.9032 57.4422 56.0355C58.9787 55.2383 60.826 54.6904 62.8398 54.3817C64.872 54.1157 67.0392 54.0755 69.1924 54.253C71.321 54.4711 73.3979 54.9212 75.2692 55.6093C77.0666 56.366 78.6178 57.3918 79.7804 58.6815Z" stroke="url(#paint19_linear_30_2582)" stroke-width="2" stroke-linecap="round" stroke-dasharray="8 11"/>
<path opacity="0.24" d="M78.6 60.0487C79.406 61.28 79.7858 62.5774 79.7814 63.8567C79.7085 65.1744 79.2777 66.4476 78.5535 67.5956C77.7964 68.7609 76.7786 69.7974 75.5726 70.6364C74.3773 71.5129 73.0326 72.2191 71.6117 72.7036C70.2454 73.2628 68.9553 73.5671 67.7905 73.6364C66.6733 73.7757 65.6552 73.6594 64.7596 73.2985C63.8627 72.9911 63.0321 72.426 62.2782 71.6231C61.4566 70.8796 60.6522 69.911 59.9014 68.7386C59.0347 67.6458 58.2995 66.4623 57.7308 65.2571C57.0995 64.1156 56.6896 62.939 56.5518 61.7934C56.4147 60.696 56.5944 59.6293 57.1227 58.6606C57.6891 57.7431 58.6239 56.9352 59.9381 56.2993C61.295 55.7212 62.8932 55.3716 64.6149 55.2359C66.3473 55.1375 68.1759 55.2448 69.9737 55.5439C71.7517 55.8785 73.4657 56.4106 74.9924 57.1315C76.4576 57.9037 77.6991 58.8824 78.6 60.0487Z" stroke="url(#paint20_linear_30_2582)" stroke-width="2" stroke-linecap="round" stroke-dasharray="10 6"/>
<path opacity="0.2" d="M77.2846 61.176C77.8826 62.2328 78.1325 63.3096 78.0728 64.3497C77.9614 65.4154 77.562 66.4276 76.9278 67.3261C76.2671 68.2426 75.4016 69.0458 74.3853 69.6827C73.3751 70.3514 72.2447 70.8707 71.0493 71.196C69.8891 71.5766 68.786 71.7397 67.7871 71.7111C66.3702 71.6423 63.9875 70.5843 62.99 69.6105C62.3019 68.9386 61.6606 68.091 61.0996 67.0829C60.4552 66.1252 59.9502 65.1019 59.5984 64.0755C59.0937 62.5929 59.1332 59.8127 59.7898 58.6301C60.3378 57.9162 61.1743 57.3152 62.3028 56.8792C63.4583 56.4847 64.79 56.2952 66.2053 56.2904C67.6259 56.3159 69.1069 56.5215 70.5484 56.8871C71.9706 57.2793 73.3287 57.8372 74.5191 58.5375C75.6637 59.273 76.617 60.1615 77.2846 61.176Z" stroke="url(#paint21_linear_30_2582)" stroke-width="2" stroke-linecap="round"/>
<path opacity="0.16" d="M75.8791 62.0792C76.6688 63.8313 76.3998 65.5516 75.3765 66.8956C74.2845 68.291 72.5846 69.3194 70.6456 69.6846C68.7808 70.1947 67.0791 70.0005 65.77 69.2626C64.4312 68.6314 63.291 67.4105 62.5498 65.725C61.5946 64.1473 61.2043 62.4185 61.4362 60.9164C61.6361 59.5097 62.6368 58.3459 64.4696 57.7696C66.3613 57.3085 68.7081 57.5293 70.9049 58.2665C73.0483 59.0849 74.9003 60.4204 75.8791 62.0792Z" stroke="url(#paint22_linear_30_2582)" stroke-width="2" stroke-linecap="round" stroke-dasharray="9 6"/>
<path opacity="0.13" d="M74.4198 62.7747C74.9283 64.1064 74.6835 65.3651 73.9042 66.3186C73.0842 67.3068 71.8184 68.0024 70.3651 68.1929C68.9477 68.4636 67.6312 68.2053 66.6084 67.5649C65.5591 66.9844 64.6987 65.9919 64.2135 64.7024C63.6042 63.464 63.4741 62.1689 63.8047 61.0872C64.1069 60.061 64.9704 59.2644 66.3717 58.9519C67.8031 58.7099 69.4952 59.0026 71.0333 59.6751C72.5349 60.3962 73.7976 61.4898 74.4198 62.7747Z" stroke="url(#paint23_linear_30_2582)" stroke-width="2" stroke-linecap="round" stroke-dasharray="9 8"/>
<path opacity="0.09" d="M72.9344 63.2905C73.4545 65.101 72.1222 66.62 70.176 66.7274C68.2803 66.9813 66.5398 65.8149 66.0398 64.043C65.3195 62.3472 66.069 60.6864 67.9522 60.3963C69.8822 60.2371 72.2065 61.5483 72.9344 63.2905Z" stroke="url(#paint24_linear_30_2582)" stroke-width="2" stroke-linecap="round" stroke-dasharray="9 9"/>
<defs>
<linearGradient id="paint0_linear_30_2582" x1="4220.07" y1="-2011.54" x2="8311.6" y2="6377.32" gradientUnits="userSpaceOnUse">
<stop stop-color="#E84A8C"/>
<stop offset="1" stop-color="#F3A5C5"/>
</linearGradient>
<linearGradient id="paint1_linear_30_2582" x1="4190.29" y1="-1645.02" x2="7542.89" y2="6669.67" gradientUnits="userSpaceOnUse">
<stop stop-color="#E84A8C"/>
<stop offset="1" stop-color="#F3A5C5"/>
</linearGradient>
<linearGradient id="paint2_linear_30_2582" x1="4130.02" y1="-1293.27" x2="6775.09" y2="6886.25" gradientUnits="userSpaceOnUse">
<stop stop-color="#E84A8C"/>
<stop offset="1" stop-color="#F3A5C5"/>
</linearGradient>
<linearGradient id="paint3_linear_30_2582" x1="4040.87" y1="-958.642" x2="6014.56" y2="7028.62" gradientUnits="userSpaceOnUse">
<stop stop-color="#E84A8C"/>
<stop offset="1" stop-color="#F3A5C5"/>
</linearGradient>
<linearGradient id="paint4_linear_30_2582" x1="3924.93" y1="-643.44" x2="5267.79" y2="7098.67" gradientUnits="userSpaceOnUse">
<stop stop-color="#E84A8C"/>
<stop offset="1" stop-color="#F3A5C5"/>
</linearGradient>
<linearGradient id="paint5_linear_30_2582" x1="3784.9" y1="-349.806" x2="4541.5" y2="7098.77" gradientUnits="userSpaceOnUse">
<stop stop-color="#E84A8C"/>
<stop offset="1" stop-color="#F3A5C5"/>
</linearGradient>
<linearGradient id="paint6_linear_30_2582" x1="3622.56" y1="-79.505" x2="3841.09" y2="7032.12" gradientUnits="userSpaceOnUse">
<stop stop-color="#E84A8C"/>
<stop offset="1" stop-color="#F3A5C5"/>
</linearGradient>
<linearGradient id="paint7_linear_30_2582" x1="3441.62" y1="165.813" x2="3173.43" y2="6902.01" gradientUnits="userSpaceOnUse">
<stop stop-color="#E84A8C"/>
<stop offset="1" stop-color="#F3A5C5"/>
</linearGradient>
<linearGradient id="paint8_linear_30_2582" x1="3244.3" y1="384.89" x2="2543.34" y2="6713.84" gradientUnits="userSpaceOnUse">
<stop stop-color="#E84A8C"/>
<stop offset="1" stop-color="#F3A5C5"/>
</linearGradient>
<linearGradient id="paint9_linear_30_2582" x1="3035.73" y1="577.1" x2="1957.9" y2="6472.9" gradientUnits="userSpaceOnUse">
<stop stop-color="#E84A8C"/>
<stop offset="1" stop-color="#F3A5C5"/>
</linearGradient>
<linearGradient id="paint10_linear_30_2582" x1="2816.44" y1="741.569" x2="1419.2" y2="6183.47" gradientUnits="userSpaceOnUse">
<stop stop-color="#E84A8C"/>
<stop offset="1" stop-color="#F3A5C5"/>
</linearGradient>
<linearGradient id="paint11_linear_30_2582" x1="2587.62" y1="877.224" x2="928.518" y2="5853.07" gradientUnits="userSpaceOnUse">
<stop stop-color="#E84A8C"/>
<stop offset="1" stop-color="#F3A5C5"/>
</linearGradient>
<linearGradient id="paint12_linear_30_2582" x1="2355.64" y1="984.857" x2="492.598" y2="5487.09" gradientUnits="userSpaceOnUse">
<stop stop-color="#E84A8C"/>
<stop offset="1" stop-color="#F3A5C5"/>
</linearGradient>
<linearGradient id="paint13_linear_30_2582" x1="2121.87" y1="1064.16" x2="112.068" y2="5091.67" gradientUnits="userSpaceOnUse">
<stop stop-color="#E84A8C"/>
<stop offset="1" stop-color="#F3A5C5"/>
</linearGradient>
<linearGradient id="paint14_linear_30_2582" x1="1889.47" y1="1115.71" x2="-211.55" y2="4674.01" gradientUnits="userSpaceOnUse">
<stop stop-color="#E84A8C"/>
<stop offset="1" stop-color="#F3A5C5"/>
</linearGradient>
<linearGradient id="paint15_linear_30_2582" x1="1661.1" y1="1140.1" x2="-477.985" y2="4240.87" gradientUnits="userSpaceOnUse">
<stop stop-color="#E84A8C"/>
<stop offset="1" stop-color="#F3A5C5"/>
</linearGradient>
<linearGradient id="paint16_linear_30_2582" x1="1439.66" y1="1138.49" x2="-687.223" y2="3798.98" gradientUnits="userSpaceOnUse">
<stop stop-color="#E84A8C"/>
<stop offset="1" stop-color="#F3A5C5"/>
</linearGradient>
<linearGradient id="paint17_linear_30_2582" x1="1227.71" y1="1112.14" x2="-842.311" y2="3356.97" gradientUnits="userSpaceOnUse">
<stop stop-color="#E84A8C"/>
<stop offset="1" stop-color="#F3A5C5"/>
</linearGradient>
<linearGradient id="paint18_linear_30_2582" x1="1026.81" y1="1061.68" x2="-949.255" y2="2922.52" gradientUnits="userSpaceOnUse">
<stop stop-color="#E84A8C"/>
<stop offset="1" stop-color="#F3A5C5"/>
</linearGradient>
<linearGradient id="paint19_linear_30_2582" x1="841.112" y1="990.836" x2="-996.297" y2="2491.53" gradientUnits="userSpaceOnUse">
<stop stop-color="#E84A8C"/>
<stop offset="1" stop-color="#F3A5C5"/>
</linearGradient>
<linearGradient id="paint20_linear_30_2582" x1="671.51" y1="900.553" x2="-988.725" y2="2071.72" gradientUnits="userSpaceOnUse">
<stop stop-color="#E84A8C"/>
<stop offset="1" stop-color="#F3A5C5"/>
</linearGradient>
<linearGradient id="paint21_linear_30_2582" x1="519.771" y1="792.96" x2="-928.269" y2="1668.54" gradientUnits="userSpaceOnUse">
<stop stop-color="#E84A8C"/>
<stop offset="1" stop-color="#F3A5C5"/>
</linearGradient>
<linearGradient id="paint22_linear_30_2582" x1="387.402" y1="670.324" x2="-818.48" y2="1287.94" gradientUnits="userSpaceOnUse">
<stop stop-color="#E84A8C"/>
<stop offset="1" stop-color="#F3A5C5"/>
</linearGradient>
<linearGradient id="paint23_linear_30_2582" x1="275.01" y1="533.507" x2="-659.142" y2="931.571" gradientUnits="userSpaceOnUse">
<stop stop-color="#E84A8C"/>
<stop offset="1" stop-color="#F3A5C5"/>
</linearGradient>
<linearGradient id="paint24_linear_30_2582" x1="184.145" y1="385.538" x2="-455.99" y2="606.454" gradientUnits="userSpaceOnUse">
<stop stop-color="#E84A8C"/>
<stop offset="1" stop-color="#F3A5C5"/>
</linearGradient>
</defs>
</svg>
